<?xml version="1.0" standalone="no"?>
<!DOCTYPE svg PUBLIC "-//W3C//DTD SVG 20010904//EN"
 "http://www.w3.org/TR/2001/REC-SVG-20010904/DTD/svg10.dtd">
<svg version="1.0" xmlns="http://www.w3.org/2000/svg"
 width="800.000000pt" height="800.000000pt" viewBox="0 0 800.000000 800.000000"
 preserveAspectRatio="xMidYMid meet">
<metadata>
Created by potrace 1.14, written by Peter Selinger 2001-2017
</metadata>
<g transform="translate(0.000000,800.000000) scale(0.100000,-0.100000)"
fill="#000000" stroke="none">
<path d="M3955 7910 c6 -9 83 -5 92 4 4 4 -16 6 -44 5 -29 -1 -50 -6 -48 -9z"/>
<path d="M4071 7890 c12 -24 11 -24 -6 -10 -19 16 -125 22 -125 7 0 -5 -4 -6
-9 -2 -5 3 -12 1 -16 -5 -9 -15 -28 -12 -19 3 4 7 3 9 -2 4 -5 -5 -9 -14 -9
-20 0 -7 -13 -13 -29 -15 -22 -3 -26 -6 -15 -13 11 -7 11 -9 -3 -9 -10 0 -18
6 -18 13 0 6 -8 -3 -17 -21 -8 -18 -18 -30 -21 -28 -3 3 1 12 7 20 9 11 9 16
-1 22 -7 4 -10 4 -6 -1 4 -4 0 -14 -8 -22 -8 -8 -12 -19 -9 -24 4 -5 4 -9 0
-9 -3 0 -10 10 -15 23 -7 17 -9 18 -9 5 -1 -16 -25 -24 -54 -19 -5 1 -6 -2 -3
-7 2 -4 1 -14 -5 -22 -7 -13 -9 -13 -9 0 -1 12 -4 11 -15 -4 -8 -10 -21 -16
-29 -13 -8 3 -17 -1 -20 -9 -4 -10 -2 -13 7 -8 7 4 9 3 4 -2 -12 -12 -30 -12
-39 1 -5 6 -8 2 -8 -9 0 -12 -5 -16 -15 -12 -8 3 -15 0 -15 -6 0 -6 -3 -8 -7
-5 -3 4 -12 2 -20 -4 -7 -6 -13 -8 -13 -4 0 4 -7 2 -15 -5 -12 -10 -15 -10
-15 1 0 12 -2 12 -9 0 -5 -7 -7 -23 -4 -35 4 -19 3 -19 -10 3 -12 20 -15 21
-21 6 -3 -9 -4 -21 -1 -26 4 -5 -1 -6 -9 -3 -9 3 -13 10 -10 15 3 5 1 9 -4 9
-6 0 -13 -7 -16 -16 -3 -8 -2 -12 3 -9 5 3 12 1 15 -4 7 -11 -13 -9 -31 2 -9
6 -11 3 -6 -10 6 -16 5 -16 -10 -4 -15 12 -17 12 -11 -3 3 -9 1 -16 -5 -16 -6
0 -11 5 -11 10 0 6 -5 10 -11 10 -5 0 -7 -5 -3 -12 5 -8 2 -9 -11 -4 -15 5
-16 4 -5 -9 15 -18 -1 -20 -19 -2 -10 10 -11 8 -5 -7 6 -16 5 -17 -15 -6 -21
11 -22 10 -11 -10 7 -13 8 -20 2 -16 -6 3 -12 3 -15 -1 -2 -5 -3 -3 -1 3 1 6
-4 11 -11 11 -7 0 -12 -8 -10 -17 2 -11 -3 -17 -13 -16 -9 0 -16 -5 -14 -12 1
-8 -2 -11 -8 -7 -6 3 -8 12 -4 18 3 7 -2 3 -10 -7 -14 -18 -21 -15 -17 7 1 5
-3 6 -9 2 -6 -3 -8 -10 -5 -15 3 -4 -2 -11 -11 -14 -22 -9 -26 -8 -18 6 4 7 3
8 -5 4 -9 -6 -9 -11 0 -22 13 -16 -2 -19 -17 -4 -8 8 -15 6 -25 -6 -8 -10 -9
-15 -2 -11 6 4 14 3 17 -2 3 -4 -4 -8 -17 -7 -13 1 -21 -4 -19 -12 1 -8 -2
-11 -7 -7 -6 3 -8 12 -4 20 3 8 0 15 -7 15 -6 0 -9 -4 -6 -9 8 -12 -18 -44
-38 -47 -9 -1 -14 2 -10 7 3 5 0 9 -7 9 -7 0 -9 -8 -6 -21 4 -17 3 -19 -6 -10
-14 14 -30 15 -22 1 3 -5 2 -10 -4 -10 -5 0 -12 6 -14 13 -3 6 -6 1 -6 -13 -1
-20 -3 -22 -11 -10 -8 13 -12 12 -27 -4 -16 -18 -16 -19 0 -7 9 8 17 9 17 3 0
-15 -26 -22 -39 -9 -8 8 -11 5 -11 -13 0 -13 -3 -20 -7 -17 -3 4 -15 -1 -26
-10 -15 -13 -21 -15 -24 -5 -7 18 -24 15 -21 -4 2 -10 -5 -18 -15 -20 -14 -2
-16 1 -7 11 8 9 8 15 0 20 -5 3 -11 4 -11 1 -1 -3 -3 -10 -4 -16 -1 -5 -3 -14
-4 -19 -2 -16 -34 -22 -43 -9 -6 11 -8 10 -8 0 0 -7 -5 -10 -11 -6 -8 4 -8 0
0 -15 10 -17 9 -20 -4 -15 -9 4 -15 1 -15 -7 0 -8 -6 -5 -14 6 -12 16 -16 17
-29 6 -9 -7 -22 -9 -28 -5 -8 4 -9 3 -5 -4 4 -7 2 -12 -3 -12 -6 0 -11 -5 -11
-11 0 -5 4 -7 10 -4 6 3 7 -1 4 -10 -6 -14 -8 -14 -19 2 -11 15 -13 15 -24 -6
-11 -19 -15 -20 -29 -9 -12 10 -14 10 -8 1 4 -7 2 -13 -3 -13 -6 0 -10 -3 -10
-7 3 -20 -3 -23 -22 -13 -17 10 -21 8 -26 -9 -3 -11 -9 -18 -14 -15 -5 3 -7 9
-4 14 3 5 0 12 -6 16 -7 4 -9 3 -5 -4 3 -5 0 -13 -6 -15 -10 -4 -10 -6 0 -6 6
-1 12 -9 11 -18 0 -11 -3 -13 -6 -5 -7 18 -23 15 -24 -5 0 -14 -2 -13 -9 5 -5
12 -12 22 -14 22 -3 0 -2 -7 1 -17 4 -10 2 -14 -4 -10 -6 4 -13 0 -17 -8 -3
-8 -11 -15 -17 -15 -8 0 -8 4 1 15 7 9 10 18 6 22 -3 3 -6 2 -6 -3 0 -5 -10
-20 -21 -34 -13 -16 -19 -19 -15 -8 3 10 0 20 -6 24 -6 4 -8 3 -4 -4 3 -6 2
-13 -4 -17 -6 -4 -7 -12 -3 -18 3 -7 -4 -3 -17 8 l-23 20 19 -30 c12 -19 14
-26 5 -21 -9 6 -18 3 -26 -8 -11 -15 -13 -15 -19 -1 -4 13 -9 13 -25 3 -11 -7
-17 -16 -14 -22 3 -5 1 -6 -5 -2 -7 4 -12 1 -12 -9 0 -9 -5 -13 -10 -10 -6 4
-8 11 -4 16 3 5 -11 0 -30 -11 -20 -11 -39 -21 -44 -22 -4 -2 -6 -7 -4 -12 2
-5 -5 -6 -14 -2 -15 6 -15 4 -3 -11 13 -16 12 -16 -15 1 -16 10 -26 13 -22 8
3 -6 2 -13 -3 -17 -6 -3 -8 -13 -5 -23 5 -15 5 -15 -6 1 -6 9 -8 22 -5 27 3 6
4 10 1 10 -3 0 -10 -10 -17 -21 -9 -17 -8 -20 3 -14 10 6 10 5 -1 -6 -10 -11
-15 -11 -18 -1 -3 6 -9 12 -15 12 -6 0 -8 -7 -4 -15 3 -8 2 -14 -2 -13 -17 4
-52 -14 -46 -24 4 -6 2 -8 -4 -4 -6 3 -13 2 -17 -3 -3 -6 -13 -7 -22 -4 -10 4
-14 2 -10 -4 5 -7 -2 -10 -17 -9 -14 2 -25 0 -24 -3 2 -19 -4 -24 -12 -11 -8
13 -10 12 -10 -4 0 -15 -3 -16 -15 -6 -9 7 -18 10 -22 6 -3 -3 -2 -6 4 -6 6 0
14 -7 17 -16 3 -8 2 -12 -4 -9 -6 3 -10 0 -10 -7 0 -8 -4 -7 -11 4 -10 17 -39
14 -39 -4 0 -6 8 -4 18 3 15 13 16 12 4 -2 -7 -10 -25 -16 -41 -15 -19 1 -27
-2 -24 -10 6 -16 -14 -27 -23 -13 -5 8 -3 9 6 4 9 -5 11 -4 6 4 -6 8 -12 9
-20 2 -7 -6 -16 -9 -19 -6 -4 3 -5 2 -2 -1 6 -8 -21 -34 -35 -34 -6 0 -8 -6
-4 -12 4 -7 4 -10 -1 -6 -4 4 -15 2 -23 -5 -11 -8 -14 -8 -9 0 4 6 2 15 -4 19
-8 5 -9 3 -4 -6 6 -10 4 -12 -8 -7 -11 4 -22 -2 -32 -16 -8 -12 -23 -22 -33
-23 -23 -1 -72 -25 -72 -36 0 -5 10 -2 22 6 12 9 27 16 33 16 10 -1 -45 -34
-57 -35 -4 0 -12 -5 -19 -12 -9 -9 -17 -9 -33 -1 -18 10 -19 9 -9 -3 10 -12 8
-15 -8 -16 -13 -1 -17 2 -12 10 4 7 -2 5 -12 -3 -17 -14 -18 -13 -11 5 5 15 4
17 -5 8 -6 -6 -12 -21 -13 -32 0 -12 -5 -21 -11 -20 -5 0 -9 7 -7 15 2 8 -2
14 -8 14 -6 0 -9 -4 -5 -9 3 -5 1 -12 -5 -16 -6 -4 -7 -12 -3 -18 3 -7 -4 -3
-18 8 -13 11 -18 13 -11 5 18 -21 15 -35 -5 -19 -15 12 -16 12 -10 -3 5 -15 2
-16 -21 -8 -25 10 -26 9 -8 -5 19 -14 18 -15 -12 -11 -31 3 -58 -14 -34 -22 7
-2 9 -8 6 -13 -3 -6 -12 -2 -19 8 -11 15 -15 15 -29 4 -9 -7 -16 -20 -16 -28
0 -8 -4 -12 -10 -8 -5 3 -6 13 -3 23 6 14 4 14 -13 -2 -10 -11 -19 -23 -19
-27 0 -4 -3 -11 -7 -15 -5 -4 -8 -2 -8 4 0 7 -5 12 -11 12 -5 0 -7 -5 -3 -12
5 -8 2 -9 -9 -5 -9 3 -19 1 -23 -5 -4 -6 -3 -8 2 -5 6 3 11 -4 11 -16 2 -16 0
-18 -6 -8 -5 7 -14 11 -20 7 -7 -4 -9 -1 -5 7 3 8 0 18 -6 22 -6 3 -10 3 -9
-2 5 -28 -2 -42 -18 -36 -10 4 -14 2 -10 -4 4 -6 0 -14 -9 -17 -8 -3 -12 -11
-8 -17 4 -7 3 -10 -2 -6 -5 3 -18 -1 -28 -9 -17 -12 -17 -14 -3 -20 14 -5 14
-8 2 -20 -19 -20 -30 -18 -14 3 13 15 12 15 -8 2 -12 -7 -19 -16 -14 -19 5 -3
10 -20 13 -37 4 -28 2 -31 -11 -20 -12 10 -13 9 -7 -1 12 -21 15 -62 3 -55 -6
4 -8 -2 -4 -16 3 -14 0 -24 -9 -28 -11 -4 -12 -8 -3 -19 10 -12 8 -13 -6 -8
-14 6 -16 4 -9 -7 15 -24 13 -38 -4 -31 -15 5 -16 4 -2 -13 9 -11 10 -16 3
-11 -7 4 -13 2 -13 -3 0 -6 5 -11 11 -11 5 0 7 -5 4 -10 -4 -6 -12 -7 -18 -4
-7 4 -9 4 -5 -1 4 -4 2 -15 -5 -23 -8 -10 -8 -13 -1 -9 7 4 14 1 17 -7 3 -8
-1 -13 -11 -12 -10 0 -17 -3 -17 -9 0 -5 6 -9 13 -7 8 2 11 -1 7 -7 -3 -6 -13
-11 -21 -11 -20 0 -17 -20 4 -21 10 0 12 -3 4 -6 -6 -2 -10 -9 -6 -14 3 -5 -1
-9 -8 -9 -9 0 -9 -3 2 -10 10 -6 11 -10 3 -10 -7 0 -13 -9 -13 -21 0 -11 -4
-18 -8 -15 -4 2 -9 -4 -9 -15 -2 -16 1 -18 12 -9 9 8 15 8 20 0 4 -6 1 -9 -7
-8 -7 2 -12 -2 -11 -9 2 -6 -6 -15 -17 -18 -19 -6 -19 -8 -4 -23 15 -15 15
-17 -4 -30 -20 -13 -20 -48 1 -35 6 3 7 1 3 -5 -4 -7 -15 -12 -24 -13 -11 -1
-8 -4 8 -9 l25 -8 -25 -1 c-20 -1 -22 -3 -10 -11 10 -6 11 -10 3 -10 -17 0
-17 -27 0 -33 7 -3 5 -6 -6 -6 -14 -1 -16 -5 -7 -20 13 -25 13 -42 -1 -18 -5
9 -15 17 -22 17 -8 0 -9 -3 -1 -8 14 -10 26 -42 15 -42 -5 0 -11 3 -14 8 -2 4
-2 1 0 -7 2 -7 -2 -21 -9 -29 -11 -13 -11 -14 1 -7 11 6 13 4 8 -9 -4 -10 -7
-20 -7 -22 0 -3 -5 -2 -12 2 -7 4 -1 -8 12 -27 22 -31 22 -33 2 -15 -21 18
-21 18 -17 -3 2 -11 6 -25 10 -30 3 -5 0 -13 -6 -17 -8 -5 -9 -3 -4 6 5 9 4
11 -4 6 -9 -6 -9 -11 1 -24 11 -13 10 -15 -4 -9 -22 8 -23 3 -2 -17 12 -12 12
-16 2 -16 -7 0 -22 -12 -32 -27 -11 -14 -14 -23 -8 -19 8 5 12 0 12 -14 0 -14
-4 -19 -12 -14 -10 6 -10 5 -1 -7 10 -12 10 -18 0 -29 -10 -10 -9 -11 3 -5 10
6 9 2 -3 -12 -18 -21 -18 -22 0 -33 16 -10 16 -11 -5 -6 -13 2 -21 2 -18 -1 3
-4 -2 -15 -11 -26 -10 -11 -13 -17 -6 -14 8 5 11 0 10 -13 -1 -11 -5 -20 -10
-20 -4 0 -5 -5 -2 -10 10 -16 27 0 20 19 -4 11 -3 13 5 5 14 -14 2 -44 -17
-44 -8 0 -11 -5 -8 -10 4 -6 12 -7 18 -3 7 4 6 0 -2 -10 -15 -19 -26 -23 -15
-5 5 7 3 8 -6 3 -10 -6 -9 -11 6 -23 18 -14 18 -14 -2 -10 -15 4 -21 1 -21
-11 0 -35 -3 -42 -16 -35 -8 5 -8 2 2 -9 7 -9 16 -17 19 -17 3 0 2 3 -1 7 -9
8 12 33 27 33 6 0 4 -5 -4 -10 -8 -5 -15 -15 -15 -22 0 -7 -9 -12 -19 -11 -13
1 -15 -2 -7 -10 16 -16 13 -30 -5 -23 -13 5 -14 4 -6 -7 7 -8 11 -16 9 -18 -1
-3 6 4 16 14 9 11 17 15 17 10 0 -5 -9 -19 -20 -31 -11 -12 -20 -26 -20 -32 0
-6 -5 -8 -12 -3 -7 4 -5 -6 6 -21 16 -25 16 -28 2 -23 -9 4 -16 2 -16 -4 0 -6
-5 -7 -12 -3 -7 4 -8 3 -4 -4 4 -6 13 -9 20 -6 8 3 17 0 22 -7 4 -8 3 -10 -4
-5 -7 4 -12 2 -12 -3 0 -6 -7 -11 -15 -11 -8 0 -15 -5 -15 -10 0 -6 6 -10 14
-8 8 2 15 -1 15 -7 1 -5 -3 -10 -8 -10 -5 0 -13 -3 -17 -8 -4 -4 -1 -7 7 -7
12 0 11 -2 -1 -10 -12 -8 -13 -11 -1 -19 11 -7 11 -9 0 -14 -12 -4 -11 -7 1
-16 13 -9 12 -11 -5 -11 -15 0 -16 -3 -7 -12 7 -7 12 -17 12 -22 0 -7 -3 -6
-8 1 -5 8 -12 7 -27 -4 -16 -13 -17 -15 -2 -10 9 4 17 2 17 -2 0 -5 -5 -11
-12 -13 -6 -2 -12 -12 -14 -22 -2 -13 2 -16 14 -12 15 5 15 5 0 -7 -14 -11
-15 -16 -5 -27 10 -10 9 -12 -5 -7 -12 4 -15 2 -12 -7 3 -8 0 -17 -5 -21 -6
-3 -9 -11 -5 -16 13 -22 13 -57 -1 -69 -8 -7 -13 -16 -10 -20 3 -5 0 -12 -6
-16 -8 -5 -9 -3 -4 6 6 9 4 11 -5 5 -10 -6 -9 -11 4 -21 13 -9 14 -13 4 -17
-10 -4 -10 -8 2 -17 12 -9 9 -10 -15 -6 -16 4 -25 3 -20 -1 10 -8 15 -63 6
-60 -4 1 -7 -2 -8 -8 -1 -5 5 -9 14 -7 13 3 13 1 2 -11 -8 -8 -18 -12 -24 -9
-5 3 -7 2 -3 -3 4 -4 3 -14 -4 -22 -6 -7 -8 -16 -4 -20 3 -3 6 -1 6 5 0 7 8
12 18 11 9 0 12 -3 5 -5 -7 -3 -10 -11 -7 -19 3 -7 0 -16 -6 -20 -8 -5 -8 -11
2 -23 10 -14 10 -15 -2 -5 -20 18 -26 16 -27 -9 -2 -16 0 -19 6 -10 6 11 10
10 15 -4 4 -10 4 -15 0 -11 -4 4 -13 -1 -20 -11 -18 -24 -17 -32 4 -26 15 5
15 4 -2 -10 -10 -8 -22 -13 -27 -11 -4 3 -11 0 -15 -6 -4 -8 -3 -9 4 -5 7 4
12 2 12 -5 0 -8 5 -7 18 2 15 12 16 12 5 -2 -7 -9 -9 -20 -5 -24 4 -5 2 -6 -3
-2 -6 3 -17 -4 -25 -16 -12 -20 -12 -21 3 -9 12 10 17 10 23 1 4 -7 3 -9 -2
-6 -6 3 -16 -4 -23 -15 -11 -18 -11 -20 1 -15 8 3 15 -1 15 -8 0 -7 -8 -12
-19 -10 -15 3 -16 1 -8 -15 8 -15 6 -20 -11 -25 -12 -4 -17 -10 -12 -14 18
-11 23 -52 7 -58 -8 -3 -14 -9 -14 -15 0 -5 4 -7 8 -4 5 3 8 -4 7 -16 -1 -11
-9 -24 -18 -29 -13 -8 -15 -5 -11 18 3 15 3 25 -1 22 -11 -11 -14 -49 -4 -54
5 -4 9 -11 9 -16 0 -6 -4 -8 -8 -5 -5 3 -9 -1 -9 -9 0 -8 3 -12 7 -10 3 2 6
-5 6 -15 0 -15 -3 -17 -15 -7 -12 10 -13 9 -4 -7 8 -14 6 -23 -8 -37 -18 -18
-19 -20 -2 -47 17 -26 17 -26 0 -13 -10 8 -20 11 -24 7 -3 -3 -1 -6 5 -6 7 0
12 -7 12 -15 0 -8 -6 -15 -12 -15 -8 0 -9 -3 -3 -8 6 -4 11 -13 13 -21 3 -12
0 -12 -12 -1 -21 16 -21 6 0 -14 12 -12 12 -16 2 -16 -10 0 -9 -3 2 -10 11 -7
11 -10 2 -10 -7 0 -11 -4 -7 -9 3 -5 1 -12 -4 -16 -6 -3 -8 3 -6 13 2 10 -1
25 -6 33 -6 10 -8 7 -5 -11 2 -14 -2 -31 -8 -39 -9 -12 -8 -13 3 -6 11 6 13 4
8 -8 -3 -9 -1 -18 6 -21 7 -2 1 -5 -13 -6 -14 -1 -19 -4 -12 -7 6 -2 12 -9 12
-14 0 -6 -5 -7 -11 -3 -7 4 -10 1 -7 -7 3 -8 10 -14 15 -14 6 0 15 -4 20 -8 4
-5 1 -7 -7 -5 -8 2 -14 -2 -15 -9 0 -6 -4 -15 -9 -20 -5 -5 -6 -2 -1 6 6 10 4
12 -4 7 -7 -5 -9 -12 -3 -19 10 -13 1 -59 -10 -58 -5 1 -8 -1 -8 -4 0 -3 0
-10 0 -16 0 -8 6 -7 17 2 15 11 14 10 -1 -9 -11 -12 -14 -22 -8 -22 7 0 12 -5
12 -12 0 -9 -3 -9 -12 0 -17 17 -24 15 -25 -10 -2 -18 0 -20 7 -8 8 12 9 10 7
-7 -2 -12 -7 -26 -12 -30 -4 -5 -4 -1 0 7 7 12 6 13 -7 3 -8 -7 -19 -9 -23 -5
-5 4 -5 1 -1 -6 4 -7 11 -10 15 -8 4 3 13 1 21 -5 11 -6 12 -9 2 -9 -8 0 -10
-5 -6 -12 5 -9 2 -8 -9 1 -15 12 -17 12 -11 -4 5 -11 3 -16 -2 -12 -6 3 -11
-23 -13 -64 -2 -51 2 -73 13 -84 18 -18 30 -20 20 -2 -4 7 -3 9 2 4 9 -9 10
-13 13 -42 0 -8 11 -15 24 -16 12 0 16 -3 10 -6 -7 -2 -13 -9 -13 -14 0 -6 4
-7 10 -4 5 3 10 2 10 -4 0 -5 -3 -11 -7 -14 -5 -2 -2 -2 5 0 8 1 23 -4 35 -12
12 -8 17 -15 11 -15 -5 0 -16 6 -24 13 -12 10 -12 9 -2 -4 6 -9 9 -19 5 -23
-4 -4 3 -9 15 -13 12 -3 22 -9 22 -14 0 -5 6 -9 14 -9 8 0 19 -13 25 -30 5
-16 15 -30 20 -30 6 0 11 -5 11 -11 0 -5 -5 -7 -12 -3 -6 4 -3 -4 8 -18 10
-15 24 -25 29 -25 6 1 9 -4 8 -10 -3 -12 17 -18 40 -14 5 1 6 -3 3 -8 -4 -5
-2 -12 2 -15 5 -3 8 -17 7 -30 -2 -14 0 -25 3 -25 23 4 33 -3 28 -17 -3 -8 -2
-13 3 -10 4 3 17 -1 27 -9 18 -14 18 -14 -5 -10 -13 2 -21 1 -17 -2 12 -12 40
-12 49 0 4 7 5 0 1 -14 -3 -15 -1 -30 5 -34 6 -3 8 -11 5 -17 -4 -6 3 -5 16 2
15 8 20 8 16 1 -4 -6 -2 -11 5 -11 8 0 8 -4 -1 -15 -15 -18 -15 -18 24 -30 16
-6 29 -14 29 -20 -2 -18 18 -46 28 -40 5 4 9 -1 9 -10 0 -10 -5 -14 -12 -9
-10 5 -10 3 0 -7 11 -12 14 -12 22 1 8 12 10 11 10 -5 0 -11 9 -26 21 -33 14
-9 19 -20 16 -33 -5 -17 -3 -18 9 -8 12 10 13 9 8 -5 -5 -12 -2 -15 12 -9 10
4 15 2 11 -3 -10 -17 10 -39 25 -28 8 5 6 2 -4 -8 -24 -22 -23 -31 3 -17 16 8
20 8 14 0 -3 -6 4 -21 17 -32 l23 -20 -25 12 c-22 11 -23 10 -13 -3 7 -8 10
-18 6 -22 -4 -4 5 -3 20 3 15 6 26 7 25 3 -1 -8 10 -40 23 -65 5 -10 7 -22 4
-27 -3 -6 1 -7 9 -4 10 4 20 -3 28 -20 6 -15 17 -25 23 -22 17 6 45 -27 45
-53 0 -5 9 -13 21 -16 15 -5 17 -10 10 -19 -8 -10 -6 -18 8 -30 11 -10 24 -16
28 -13 5 3 15 2 22 -2 10 -6 9 -10 -4 -14 -10 -5 -14 -3 -9 5 4 7 3 8 -5 4 -8
-6 -9 -12 -2 -20 6 -7 8 -16 5 -19 -3 -3 9 -4 27 -2 23 3 29 2 20 -4 -8 -5
-16 -17 -17 -25 -1 -9 2 -14 7 -10 5 3 6 10 3 16 -4 7 -2 8 5 4 6 -4 10 -15 9
-24 -2 -11 4 -17 17 -17 16 0 20 -7 19 -32 0 -18 2 -32 5 -31 19 2 31 -3 27
-11 -3 -5 2 -8 12 -7 10 0 16 -6 16 -16 -1 -10 2 -15 7 -12 5 3 9 -4 9 -16 0
-12 4 -18 10 -15 5 3 10 2 10 -4 0 -5 9 -13 20 -16 11 -4 18 -10 15 -14 -2 -5
4 -19 15 -31 12 -14 20 -18 20 -10 0 7 3 11 6 7 3 -3 2 -12 -2 -19 -12 -19
-14 -39 -3 -32 5 3 9 0 9 -6 0 -7 7 -7 23 1 19 11 20 10 10 -2 -10 -12 -8 -18
7 -29 11 -8 20 -20 20 -27 0 -6 5 -15 12 -19 7 -4 8 -3 4 4 -5 8 -1 10 10 5
16 -6 16 -7 0 -18 -14 -10 -14 -14 -3 -18 8 -3 20 0 27 6 10 10 10 7 1 -10 -9
-18 -8 -24 11 -37 12 -8 26 -12 32 -9 6 4 6 1 -1 -8 -17 -21 0 -43 27 -36 17
4 19 3 9 -9 -11 -13 -4 -18 21 -16 3 0 7 -9 7 -20 2 -20 1 -20 -13 -2 -13 17
-13 16 -2 -9 8 -19 14 -24 19 -15 10 16 20 7 22 -20 0 -11 5 -18 9 -16 5 3 5
10 2 16 -4 7 -2 8 4 4 9 -5 9 -13 1 -29 -7 -12 -8 -19 -4 -15 5 4 15 2 24 -5
14 -11 15 -10 1 8 -11 15 -8 14 12 -4 23 -20 25 -27 17 -44 -8 -14 -8 -18 0
-13 10 6 15 -5 12 -26 0 -3 10 -5 23 -4 19 2 23 -1 18 -13 -5 -14 -4 -14 14
-1 18 14 18 13 -1 -9 -11 -14 -14 -21 -7 -17 6 4 12 2 12 -3 0 -6 6 -10 13 -9
6 2 11 -3 9 -11 -2 -8 3 -11 13 -8 8 4 15 2 15 -3 0 -5 -8 -11 -17 -13 -14 -4
-12 -5 5 -6 12 0 22 -5 22 -11 0 -5 -8 -7 -17 -4 -14 5 -15 4 -4 -4 8 -6 20
-8 28 -5 9 3 11 0 7 -10 -3 -8 0 -18 7 -23 7 -4 10 -3 5 4 -3 6 -2 13 3 16 5
3 8 -7 7 -23 -1 -16 0 -29 3 -29 20 2 31 -3 26 -12 -3 -6 -1 -10 4 -10 6 0 11
-7 11 -16 0 -8 4 -12 10 -9 5 3 10 1 10 -5 0 -6 5 -8 10 -5 6 4 9 1 8 -7 -2
-7 3 -12 10 -10 10 2 10 -2 2 -17 -12 -24 -13 -41 0 -21 7 12 12 12 29 -4 21
-19 23 -36 6 -48 -6 -5 -5 -8 3 -9 6 -1 17 -3 22 -4 6 -1 15 -3 21 -4 8 -1 7
-7 -2 -18 -10 -11 -10 -14 -1 -9 7 4 12 2 12 -5 0 -8 5 -7 17 2 15 13 15 12 3
-11 -13 -24 -12 -24 5 -10 10 8 16 10 12 3 -4 -6 -3 -14 3 -18 6 -4 7 -11 4
-17 -5 -8 -1 -9 10 -5 12 5 15 3 9 -6 -11 -17 -13 -38 -3 -32 5 3 12 0 16 -6
4 -8 8 -8 13 0 4 6 12 2 20 -10 7 -12 8 -18 2 -14 -6 3 -11 2 -11 -3 0 -15 28
-22 34 -9 3 9 5 9 5 0 1 -6 -3 -14 -9 -18 -14 -8 0 -35 18 -35 13 0 12 3 -4
16 -18 15 -18 15 3 4 12 -5 25 -15 29 -22 4 -6 3 -8 -3 -5 -11 7 -28 -22 -18
-31 3 -3 5 0 5 6 0 7 8 12 18 12 14 0 15 -2 2 -10 -11 -7 -11 -10 -2 -10 8 0
10 -5 6 -13 -5 -8 -2 -7 9 2 15 12 17 12 11 -4 -5 -13 -4 -16 4 -11 7 4 12 1
12 -9 0 -9 -4 -14 -9 -10 -5 3 -12 1 -15 -4 -7 -11 13 -9 32 3 7 4 12 4 11 -1
-4 -23 3 -33 23 -33 21 0 21 0 2 -14 -10 -8 -16 -18 -11 -22 4 -4 7 -2 7 4 0
7 5 12 10 12 6 0 10 -8 8 -17 -2 -12 4 -19 19 -21 12 -2 27 -11 35 -20 8 -10
8 -13 1 -9 -6 4 -14 3 -18 -3 -3 -5 1 -10 9 -10 9 0 16 -7 16 -16 0 -8 4 -12
10 -9 6 3 10 -1 10 -9 0 -14 181 -16 1794 -16 1351 0 1797 3 1802 11 5 8 2 10
-7 5 -8 -4 -3 1 10 12 15 12 22 25 18 36 -4 9 -2 15 6 13 7 -1 11 4 9 11 -1 8
2 11 9 6 7 -4 18 1 26 12 8 10 17 18 21 17 4 -2 7 3 7 10 1 6 7 11 14 9 7 -1
10 2 6 8 -5 8 -11 8 -21 -1 -7 -6 -11 -15 -8 -20 3 -5 -2 -6 -11 -3 -14 6 -13
8 5 21 11 8 17 19 14 25 -4 6 3 5 16 -2 15 -8 20 -8 16 -1 -4 6 -2 11 4 11 6
0 8 5 5 10 -3 6 -1 10 5 10 6 0 8 4 5 10 -3 5 -1 18 5 27 8 13 10 14 8 3 -2
-9 2 -16 7 -16 6 -1 9 7 7 18 -2 10 2 18 8 18 6 0 8 -6 4 -12 -5 -10 -3 -10 7
0 12 11 12 14 -1 23 -12 9 -10 10 8 6 12 -3 19 -1 16 4 -3 5 -2 19 1 30 5 15
10 18 18 10 6 -6 16 -11 22 -11 5 0 3 5 -5 10 -13 8 -10 14 14 33 22 18 26 26
16 32 -8 5 -11 4 -6 -3 3 -6 2 -13 -3 -16 -5 -4 -8 2 -7 11 2 13 12 18 32 18
31 0 39 18 20 44 -9 12 -8 13 3 6 11 -6 13 -4 7 10 -6 16 -4 16 10 4 15 -12
16 -11 9 11 -7 24 -7 24 9 5 15 -19 15 -19 10 9 -4 25 -3 27 10 17 11 -9 16
-9 22 0 4 7 3 9 -3 6 -7 -4 -10 3 -9 17 0 13 4 22 8 20 4 -3 12 4 18 13 9 14
10 14 7 2 -3 -9 -1 -22 5 -30 8 -11 9 -10 4 4 -3 9 -2 17 3 17 12 0 10 34 -3
43 -7 6 -4 7 7 3 9 -3 17 -2 17 2 1 24 18 34 41 22 22 -10 23 -10 5 4 -11 9
-15 19 -10 28 5 7 9 16 9 20 0 3 4 10 9 15 5 4 6 3 3 -3 -4 -7 -1 -14 7 -17
10 -4 12 1 9 16 -5 18 -3 20 8 10 7 -7 18 -13 24 -13 6 0 7 3 0 8 -5 4 -17 16
-25 26 -14 18 -14 19 8 7 21 -11 26 -8 23 12 -1 5 8 11 20 14 16 4 17 8 7 14
-10 7 -10 9 0 9 6 0 12 10 12 23 0 12 4 18 8 12 4 -5 16 -11 27 -12 19 -1 19
-1 3 11 -19 14 -25 32 -8 21 6 -3 10 0 10 8 0 8 7 20 15 27 9 7 14 19 11 25
-2 7 -1 17 4 24 5 10 9 9 13 -3 3 -8 -3 -26 -14 -40 -14 -18 -16 -27 -8 -32 7
-4 9 -3 5 4 -3 6 4 18 16 26 12 9 18 16 13 16 -5 0 0 7 11 16 10 8 13 13 7 9
-7 -3 -13 -1 -13 4 0 6 4 11 8 11 5 0 17 7 28 16 18 14 18 15 -4 4 -13 -7 -26
-9 -28 -7 -3 3 8 11 25 18 16 7 27 17 25 21 -3 4 -1 8 5 8 6 0 7 8 4 18 -6 15
-5 15 10 3 15 -12 17 -12 10 4 -5 15 -3 17 12 12 15 -6 16 -5 5 8 -10 12 -10
18 0 30 7 8 16 12 21 9 5 -3 9 0 9 6 0 6 6 8 13 5 6 -4 3 1 -8 10 -20 17 -20
17 1 11 21 -6 46 12 43 30 -3 21 2 28 11 14 8 -12 10 -10 11 10 1 14 1 28 0
32 0 5 6 8 15 8 9 0 12 5 8 13 -6 9 -4 10 7 0 22 -21 34 -15 14 7 -17 18 -17
20 -2 14 20 -7 24 21 5 29 -7 3 3 3 22 0 19 -2 31 -1 25 4 -16 13 -14 26 5 46
13 14 20 15 26 6 4 -7 3 -10 -3 -6 -6 4 -14 0 -17 -9 -8 -21 -8 -24 5 -24 5 0
8 4 5 9 -3 5 1 12 9 15 8 3 15 9 14 13 -3 20 2 27 12 13 9 -13 10 -13 6 0 -2
8 -12 14 -21 12 -15 -3 -15 -1 1 17 10 12 22 21 28 21 5 0 4 -4 -3 -9 -11 -7
-11 -9 0 -14 17 -6 19 39 4 63 -8 12 -7 13 6 3 8 -7 18 -10 21 -6 4 3 7 -2 7
-13 0 -16 2 -16 10 -4 6 10 5 17 -5 23 -8 4 -15 13 -15 20 0 8 3 8 8 2 4 -5
13 -11 21 -13 11 -2 12 0 2 11 -9 12 -8 16 4 21 8 3 14 11 13 17 -2 6 4 14 12
16 13 4 13 3 0 -6 -8 -6 -10 -11 -4 -11 12 0 34 21 34 33 0 4 -4 5 -10 2 -6
-3 -7 1 -4 10 6 14 8 14 20 -2 12 -17 13 -16 7 5 -3 13 -1 22 6 22 7 0 9 5 5
13 -6 9 -4 9 8 -1 13 -10 18 -10 24 -1 4 7 3 9 -3 6 -6 -4 -13 -1 -16 7 -4 9
2 12 20 10 14 -1 22 0 19 3 -9 10 15 44 26 37 7 -5 8 -2 3 6 -6 10 -14 6 -33
-16 -17 -21 -21 -23 -13 -6 7 12 23 29 37 38 13 9 23 22 22 28 -2 6 1 11 5 11
5 0 13 8 18 18 6 9 17 17 26 17 13 0 13 3 2 16 -16 20 1 33 42 30 15 -1 26 2
23 6 -3 4 -12 8 -20 8 -8 0 -14 5 -14 10 0 6 7 10 15 10 17 0 37 34 27 46 -4
5 1 2 10 -5 10 -7 15 -18 11 -24 -3 -6 -1 -7 5 -3 9 5 7 15 -5 34 -17 26 -17
26 0 13 15 -12 17 -12 11 3 -4 9 -3 16 2 15 21 -4 28 2 14 11 -13 8 -12 10 3
10 9 0 17 7 17 15 0 8 4 15 10 15 5 0 7 -8 4 -17 -5 -14 -4 -15 4 -4 6 8 8 20
5 28 -3 9 0 11 10 7 12 -4 14 -1 10 15 -4 15 -1 21 12 21 14 0 15 3 6 14 -8
10 -8 16 2 25 8 6 17 8 20 4 4 -3 9 2 13 11 3 9 10 16 16 16 5 0 6 -5 2 -12
-4 -6 -3 -8 4 -4 6 3 9 15 7 26 -2 11 1 20 6 20 6 0 7 5 4 10 -3 6 -2 10 4 10
5 0 12 -6 15 -12 3 -7 3 -1 1 14 -2 19 0 25 10 22 7 -3 16 0 21 7 5 8 3 10 -5
4 -8 -4 -7 2 3 17 9 14 13 29 9 33 -5 5 -1 4 8 -3 16 -12 29 -7 29 10 0 5 -5
6 -12 2 -7 -5 -8 -3 -4 5 5 7 14 10 22 7 8 -3 14 -1 14 5 0 6 5 7 12 3 7 -4 8
-3 4 4 -4 6 -13 9 -21 5 -8 -3 -15 -1 -15 5 0 6 11 9 25 8 13 -2 22 0 20 4 -7
11 40 51 50 43 4 -5 5 -3 1 4 -4 7 -12 10 -20 7 -7 -3 -13 2 -13 10 0 11 6 12
26 5 23 -8 24 -8 9 5 -18 13 -25 32 -9 22 9 -6 26 22 22 37 -1 5 3 6 9 2 7 -4
7 -12 0 -25 -15 -29 -12 -37 5 -13 8 12 16 33 17 46 2 24 3 24 28 10 17 -10
20 -11 10 -2 -8 8 -16 20 -18 28 -3 12 -1 12 14 0 16 -13 16 -12 4 11 -12 22
-12 24 2 12 11 -9 18 -10 23 -2 3 6 12 7 18 4 7 -4 4 1 -5 11 -15 17 -15 19 7
43 13 14 21 30 18 35 -3 5 0 7 8 5 8 -3 13 -11 12 -17 -4 -16 2 -14 18 6 8 9
9 14 3 10 -7 -4 -14 1 -17 12 -4 17 -2 19 22 10 24 -9 25 -8 7 6 -19 15 -19
15 3 15 19 0 21 3 12 13 -8 11 -6 18 10 33 12 10 24 18 27 16 4 -2 8 2 11 9 2
7 -1 9 -9 4 -8 -5 -11 -4 -6 3 3 6 19 9 34 6 26 -4 26 -4 5 9 l-23 12 23 14
c21 14 21 13 7 -5 -14 -18 -14 -18 3 -5 12 9 14 17 7 26 -13 15 -3 25 18 17
15 -5 15 -4 3 12 -8 9 -10 16 -5 15 5 -1 19 -1 32 0 22 1 23 3 20 91 -1 50 -4
86 -6 80 -2 -5 -11 -10 -20 -9 -12 0 -13 2 -4 6 10 4 10 9 -3 23 -12 14 -13
20 -4 26 7 4 10 3 6 -3 -4 -6 0 -14 8 -17 13 -4 14 -2 5 14 -6 11 -16 20 -23
20 -7 0 -8 3 -2 8 6 4 10 19 11 35 0 18 -3 24 -10 17 -5 -5 -15 -10 -20 -10
-7 0 -8 3 -1 8 14 10 37 52 28 51 -5 -1 -17 -1 -28 0 -17 1 -18 3 -5 11 14 9
7 15 -15 10 -5 -1 -4 5 3 12 11 11 16 10 28 -6 8 -11 14 -15 14 -9 0 7 -5 15
-10 18 -6 4 -7 11 -4 17 4 7 -2 8 -17 3 -24 -7 -24 -7 -4 10 11 9 15 14 10 11
-6 -2 -17 -1 -24 3 -9 6 -4 11 15 15 24 6 26 9 12 17 -10 5 -15 18 -13 29 2
12 0 18 -6 15 -5 -4 -7 -10 -4 -15 3 -5 2 -11 -2 -13 -5 -3 -9 8 -9 24 -1 16
2 27 6 24 3 -2 7 2 7 10 0 8 -4 12 -7 10 -4 -3 -7 10 -5 28 1 20 -4 38 -14 47
-9 8 -16 22 -16 30 1 8 -3 21 -8 28 -7 8 -4 12 9 12 17 0 17 1 1 13 -10 6 -19
23 -22 36 -2 14 -10 28 -17 33 -7 4 -8 8 -2 8 5 0 14 -4 20 -10 6 -6 10 -3 10
9 0 10 -7 18 -15 17 -9 -1 -15 7 -15 19 0 12 6 19 14 17 11 -3 11 0 1 12 -7 9
-17 14 -21 11 -5 -3 -6 4 -3 15 3 11 10 17 15 14 5 -3 4 3 -3 14 -7 12 -16 19
-20 16 -4 -2 -10 3 -13 12 -9 24 -7 28 8 15 11 -9 16 -9 22 0 4 8 3 9 -5 5 -6
-4 -14 0 -17 8 -3 9 -9 14 -13 11 -4 -2 -8 2 -8 10 0 8 4 12 9 9 4 -3 8 0 8 5
0 6 -5 11 -10 11 -7 0 -7 7 1 21 8 15 8 19 0 15 -6 -4 -11 -2 -11 4 0 6 -4 9
-8 6 -4 -2 -8 3 -9 12 -2 25 -10 77 -13 80 -8 8 -5 30 8 51 8 13 9 20 3 17 -6
-4 -11 -2 -11 4 0 6 -4 9 -9 6 -5 -4 -7 4 -3 16 4 16 2 19 -8 13 -9 -5 -11 -4
-6 3 4 7 1 12 -6 12 -8 0 -9 3 -3 8 15 10 18 43 4 40 -6 -2 -13 5 -14 15 -2 9
1 15 6 11 5 -3 6 -10 3 -16 -4 -7 -2 -8 4 -4 11 7 6 36 -7 36 -4 0 -8 11 -9
25 -1 14 4 25 11 25 8 0 7 3 -3 9 -8 6 -18 7 -22 5 -4 -3 -8 0 -8 7 0 7 8 9
21 6 14 -4 18 -2 11 6 -5 7 -8 23 -6 37 3 18 2 21 -5 10 -5 -8 -8 -17 -5 -21
2 -4 -1 -11 -7 -15 -7 -4 -9 -3 -5 4 3 5 0 13 -6 15 -10 4 -10 6 0 6 19 1 14
21 -5 21 -15 0 -15 2 -4 9 8 5 16 17 17 25 1 9 -2 14 -6 11 -5 -3 -11 -1 -15
5 -3 5 2 10 12 11 16 0 16 1 -2 9 -14 6 -15 9 -5 10 11 0 8 7 -10 21 -14 11
-19 18 -12 14 7 -4 12 0 12 10 0 10 5 13 13 9 8 -5 8 -2 -2 9 -14 17 -26 24
-17 9 3 -5 -1 -9 -8 -9 -8 0 -12 13 -11 34 1 18 -3 33 -9 33 -6 0 -4 5 4 10 8
5 11 10 6 10 -5 0 -2 8 5 18 10 13 8 12 -11 -3 l-24 -20 18 28 c16 26 16 28 0
25 -9 -2 -19 3 -21 10 -3 6 0 12 7 12 6 0 8 -5 4 -12 -5 -9 -2 -9 9 1 19 15
23 26 6 15 -8 -4 -9 1 -5 17 6 20 5 21 -4 7 -6 -9 -17 -15 -25 -12 -8 4 -12
11 -9 16 4 6 10 5 16 -3 7 -11 8 -9 4 4 -3 10 -6 23 -6 28 0 6 -4 8 -9 5 -4
-3 -7 5 -7 17 1 12 -3 28 -8 36 -8 11 -8 13 2 7 6 -4 12 -2 12 3 0 6 -4 11 -9
11 -6 0 -6 12 -1 30 5 17 8 30 7 31 -1 0 -10 2 -20 4 -29 5 -33 15 -7 15 23 0
23 0 4 16 -10 8 -14 13 -7 10 7 -4 9 1 5 16 -3 14 -2 19 6 14 18 -11 15 -4
-13 34 -29 39 -34 62 -7 33 9 -10 13 -13 9 -6 -5 6 -5 18 -1 24 4 8 3 9 -4 5
-16 -9 -15 7 0 22 8 8 8 12 1 12 -6 0 -18 -15 -27 -32 -8 -18 -16 -26 -16 -17
0 8 5 20 12 27 7 7 9 12 5 12 -4 0 -3 9 2 19 8 14 7 22 -6 32 -14 12 -16 12
-8 0 5 -10 4 -12 -3 -7 -17 10 -15 26 3 26 8 0 15 4 15 10 0 5 -7 7 -15 4 -17
-7 -21 11 -5 21 6 3 10 12 10 18 0 7 -4 6 -10 -3 -8 -13 -10 -12 -10 3 0 10
-4 16 -8 13 -5 -3 -9 1 -9 9 0 11 4 12 13 4 8 -6 14 -7 18 0 7 11 -28 34 -38
24 -3 -3 -6 -4 -6 0 0 3 7 13 16 21 14 15 13 16 -8 17 -13 0 -17 3 -10 6 6 2
12 11 12 19 0 9 -4 13 -9 10 -5 -4 -8 2 -6 11 2 10 4 18 5 18 1 0 3 8 5 18 3
15 1 16 -12 5 -14 -12 -15 -11 -5 9 10 17 9 25 -4 38 -9 8 -13 23 -10 31 5 12
2 15 -10 10 -14 -5 -15 -4 -4 9 8 10 9 15 1 15 -6 0 -11 5 -11 11 0 5 4 8 8 5
4 -2 8 4 8 14 0 10 -4 16 -8 14 -4 -3 -8 0 -8 6 0 6 -5 8 -12 4 -7 -4 -8 -3
-4 5 4 6 11 9 15 7 4 -3 8 1 8 8 0 8 -7 12 -15 8 -10 -3 -13 -1 -8 6 3 6 2 13
-3 16 -11 7 -2 48 13 58 8 5 7 8 -1 8 -7 0 -16 -8 -22 -17 -9 -16 -10 -15 -8
5 1 12 5 22 10 22 5 0 3 8 -4 17 -10 11 -10 14 -1 9 6 -4 12 -2 12 3 0 10 -14
15 -32 12 -5 0 -8 4 -8 10 0 6 7 9 15 6 8 -4 17 -1 21 5 5 7 2 8 -6 3 -10 -6
-12 -3 -8 13 4 12 2 20 -3 16 -12 -7 -11 3 2 27 11 21 -5 54 -22 44 -4 -3 -13
4 -19 16 -7 12 -8 19 -3 16 4 -3 15 2 22 11 13 14 12 15 -10 9 -23 -6 -23 -5
-5 8 18 13 15 19 -6 16 -4 0 -5 6 -2 14 4 8 11 12 17 8 6 -3 7 -1 3 5 -4 6
-14 8 -24 5 -15 -6 -15 -5 -3 10 7 9 9 17 5 17 -5 0 -15 9 -22 21 -8 12 -9 18
-4 15 6 -3 12 1 16 9 3 8 0 14 -6 12 -6 -1 -12 10 -13 25 -1 15 1 25 5 23 4
-2 7 2 7 10 0 8 -4 12 -9 9 -4 -3 -8 0 -8 6 0 6 -6 8 -12 5 -7 -4 -5 0 4 7 15
13 15 15 -3 26 -11 7 -17 18 -13 23 4 6 0 16 -7 21 -11 8 -10 9 3 4 12 -3 15
-1 11 10 -3 7 -9 14 -14 14 -5 0 -9 5 -9 11 0 5 4 8 8 5 4 -2 8 4 8 14 0 14
-3 16 -13 8 -8 -6 -16 -8 -20 -4 -3 3 -1 6 5 6 17 0 15 25 -3 40 -9 7 -13 15
-10 18 3 3 -1 12 -8 21 -10 14 -10 14 3 4 13 -10 16 -9 16 6 0 13 -5 17 -16
13 -13 -5 -13 -3 -2 10 10 12 10 17 1 20 -7 2 -13 11 -15 20 -1 12 4 15 18 13
12 -3 17 -1 14 3 -4 4 -13 7 -19 7 -7 0 -11 10 -11 22 1 16 -4 20 -18 18 -10
-2 -22 3 -25 11 -3 8 -13 13 -22 12 -9 -2 -15 2 -14 8 1 6 -5 11 -12 11 -11 0
-12 -4 -4 -13 7 -9 6 -14 -3 -20 -7 -4 -10 -4 -6 0 4 5 1 14 -5 21 -9 10 -15
10 -26 1 -12 -9 -12 -8 -3 10 9 16 8 21 -4 21 -7 0 -14 -7 -14 -16 -1 -10 -5
-7 -14 9 -8 14 -12 28 -10 31 2 4 -6 5 -18 1 -16 -4 -19 -2 -13 9 8 12 6 12
-8 0 -13 -10 -17 -10 -17 -1 0 8 -9 11 -27 7 -26 -5 -26 -4 -8 9 18 14 18 14
-2 14 -12 0 -23 5 -25 11 -2 6 -16 12 -31 12 -19 0 -27 5 -27 18 0 19 -34 23
-56 7 -7 -5 -17 -1 -25 9 -8 9 -9 14 -4 11 6 -4 12 3 12 15 2 16 0 18 -6 8
-11 -16 -34 -5 -25 12 4 7 1 6 -7 -2 -11 -10 -11 -15 -1 -18 6 -3 12 -9 12
-15 0 -6 -8 -4 -18 5 -10 10 -22 15 -25 12 -4 -3 -3 1 3 7 16 19 12 31 -5 14
-13 -13 -20 -13 -35 -3 -11 6 -20 19 -20 27 0 9 -3 11 -8 5 -4 -5 -13 -11 -21
-13 -12 -3 -12 0 -2 12 10 12 8 14 -13 12 -19 -2 -24 1 -21 15 2 10 -1 22 -7
25 -6 4 -8 2 -4 -4 3 -6 2 -13 -3 -16 -5 -3 -11 1 -15 9 -3 8 -11 15 -18 15
-9 0 -9 -3 2 -11 13 -9 13 -10 0 -6 -8 2 -14 11 -14 20 1 13 -2 14 -17 7 -12
-7 -20 -7 -24 0 -4 6 -10 8 -15 5 -5 -3 -12 -1 -15 5 -4 6 -1 9 6 8 6 -2 14 4
16 12 4 13 3 13 -6 0 -6 -8 -11 -10 -11 -5 0 6 -7 2 -15 -9 -13 -18 -14 -18
-12 3 1 11 6 21 12 21 5 0 2 5 -7 11 -12 7 -25 6 -40 -2 -22 -12 -22 -11 -8 6
11 14 11 17 1 11 -8 -5 -17 -3 -23 5 -8 11 -9 11 -5 -3 3 -9 3 -19 0 -22 -11
-11 -33 16 -34 43 l-1 26 -8 -25 c-5 -17 -8 -19 -9 -7 -1 12 -9 17 -30 17 -24
0 -29 4 -26 19 4 20 -9 22 -34 7 -10 -6 -12 -5 -7 2 5 8 0 12 -13 12 -12 0
-21 5 -21 11 0 5 6 7 13 3 7 -4 9 -3 4 2 -5 5 -14 9 -20 9 -7 1 -11 7 -9 14 1
7 -2 10 -8 6 -6 -4 -18 -1 -27 7 -11 8 -14 8 -10 1 5 -8 1 -11 -12 -10 -16 1
-18 4 -8 16 10 12 9 13 -10 3 -14 -8 -24 -9 -28 -2 -3 5 -3 10 2 10 4 0 -1 6
-11 12 -15 9 -22 7 -34 -8 -12 -16 -14 -16 -9 -2 4 11 0 21 -11 27 -12 8 -13
10 -3 11 8 0 11 3 8 6 -4 4 -13 1 -22 -6 -10 -8 -15 -9 -15 -1 0 6 -5 11 -11
11 -5 0 -7 -5 -4 -11 4 -6 -2 -5 -14 3 -12 7 -24 21 -27 32 -5 15 -8 16 -15 5
-6 -10 -9 -11 -9 -1 0 6 -9 12 -20 12 -11 0 -20 5 -20 11 0 5 6 7 13 3 8 -5 8
-2 -2 9 -15 19 -31 22 -31 6 0 -5 5 -7 12 -3 7 4 8 3 4 -5 -6 -9 -11 -9 -21
-1 -8 7 -20 8 -27 4 -10 -6 -10 -5 0 8 11 14 11 16 -6 11 -14 -3 -21 2 -25 17
-5 19 -8 20 -27 10 -13 -7 -20 -8 -17 -3 2 4 -7 19 -21 33 -13 14 -22 19 -18
13 4 -7 4 -13 -1 -14 -4 0 -18 -2 -30 -3 -12 -1 -20 1 -17 6 3 4 1 15 -4 24
-6 11 -11 13 -16 5 -9 -14 -26 -14 -26 0 0 5 6 7 13 3 9 -5 9 -4 0 6 -15 16
-46 23 -37 9 3 -5 10 -6 16 -3 7 4 8 2 4 -4 -9 -14 -36 -4 -36 13 0 8 -5 17
-12 21 -7 4 -8 3 -4 -4 5 -8 -1 -11 -17 -10 -14 1 -23 7 -20 13 2 7 -3 18 -12
25 -13 10 -15 9 -15 -6 0 -16 -2 -16 -9 -4 -6 8 -7 19 -3 25 3 5 -3 3 -13 -5
-15 -12 -17 -12 -10 -1 6 11 4 13 -8 8 -19 -7 -29 16 -14 34 10 11 9 11 -5 0
-14 -10 -20 -9 -37 8 -12 12 -21 17 -21 11 0 -5 -7 -10 -16 -10 -9 0 -12 5 -8
13 5 7 0 6 -11 -3 -14 -11 -19 -12 -22 -2 -3 6 -10 9 -15 6 -7 -4 -8 -2 -4 5
6 9 11 9 22 0 9 -7 14 -8 14 -1 0 16 -23 20 -45 9 -18 -9 -19 -9 -6 7 8 9 11
19 7 23 -3 3 -6 1 -6 -5 0 -7 -5 -12 -11 -12 -6 0 -9 7 -6 15 4 8 2 17 -4 20
-5 4 -9 3 -8 -2 5 -27 -3 -31 -21 -13 -11 11 -25 20 -31 20 -5 0 -7 5 -4 10
10 16 -18 7 -32 -10 -11 -13 -12 -12 -6 4 5 16 2 18 -20 14 -16 -3 -25 -1 -24
6 1 6 -3 10 -10 9 -7 -2 -10 4 -7 12 4 9 0 15 -9 15 -8 0 -18 -6 -20 -12 -4
-10 -6 -10 -6 0 -1 6 -9 12 -18 12 -15 0 -16 2 -3 10 9 6 17 5 22 -3 4 -7 8
-7 8 -2 0 6 -5 17 -10 25 -6 10 -10 11 -10 3 0 -7 -9 -13 -20 -13 -11 0 -20 4
-20 9 0 5 -7 11 -14 14 -11 4 -13 1 -10 -11 5 -14 4 -15 -5 -2 -6 8 -11 11
-11 6 0 -5 -7 -3 -15 4 -8 6 -13 17 -12 23 1 6 -4 11 -11 12 -7 0 -17 7 -23
15 -8 12 -9 9 -5 -10 3 -14 3 -20 0 -13 -3 7 -12 9 -20 6 -8 -3 -14 0 -14 7 0
6 5 8 10 5 6 -3 10 -1 10 4 0 6 -9 11 -20 11 -11 0 -20 6 -20 13 0 8 -4 7 -10
-3 -9 -13 -10 -13 -10 0 0 13 -1 13 -11 0 -9 -12 -10 -11 -6 7 4 19 1 21 -32
18 -20 -1 -30 -1 -23 2 6 3 12 10 12 16 0 5 -3 7 -6 4 -4 -3 -15 -2 -25 4 -15
8 -18 6 -13 -8 5 -15 4 -16 -5 -3 -6 8 -11 24 -12 35 0 19 -1 18 -11 -2 -10
-21 -29 -32 -27 -15 4 27 -3 40 -19 35 -12 -3 -23 4 -30 19 -7 13 -10 15 -8 5
5 -15 2 -16 -14 -7 -11 6 -20 8 -20 5 0 -3 -9 -1 -20 5 -15 8 -20 8 -20 -1 0
-7 -3 -10 -6 -7 -3 4 0 16 6 28 11 20 10 21 -9 11 -15 -9 -23 -7 -36 5 -9 9
-27 17 -41 17 -13 0 -24 4 -24 9 0 5 5 6 10 3 6 -3 10 1 10 9 0 9 -6 13 -14
10 -8 -3 -17 0 -21 6 -5 8 -13 6 -28 -7 -12 -9 -16 -11 -9 -3 18 21 15 33 -8
27 -11 -3 -20 -1 -20 4 0 5 5 9 12 9 6 0 8 3 5 6 -4 4 -14 1 -24 -7 -9 -8 -14
-9 -10 -3 4 7 0 15 -9 18 -10 4 -13 2 -8 -6 5 -7 3 -8 -5 -4 -7 5 -10 14 -7
22 3 9 0 11 -11 7 -11 -4 -14 -2 -9 5 11 19 -5 14 -20 -5 -13 -17 -14 -17 -8
0 5 13 0 17 -22 19 -16 0 -35 2 -42 2 -8 1 -18 10 -23 21 -10 20 -10 20 5 1
11 -14 16 -15 16 -6 0 11 3 11 12 2 7 -7 17 -12 23 -12 5 0 2 5 -8 11 -9 6
-15 14 -12 19 3 5 0 12 -6 16 -7 4 -9 3 -5 -4 3 -6 2 -13 -3 -16 -5 -4 -12 -2
-16 3 -3 6 -12 8 -20 5 -8 -4 -12 -10 -9 -16 3 -5 -3 -4 -14 3 -20 13 -21 29
-1 29 6 0 7 -6 3 -12 -4 -7 -3 -9 1 -5 5 4 10 14 11 22 2 11 -3 12 -22 3 -20
-9 -27 -7 -44 13 l-21 24 12 -25z m-361 -125 c-7 -9 -15 -13 -19 -10 -3 3 1
10 9 15 21 14 24 12 10 -5z m-188 -97 c-7 -7 -12 -8 -12 -2 0 14 12 26 19 19
2 -3 -1 -11 -7 -17z m-37 -16 c-3 -3 -11 0 -18 7 -9 10 -8 11 6 5 10 -3 15 -9
12 -12z m480 -52 c-9 -14 8 -12 24 3 11 10 13 10 7 0 -8 -15 10 -18 19 -3 3 6
12 10 18 10 7 0 6 -4 -3 -10 -11 -7 -11 -10 -2 -10 7 0 10 -6 7 -12 -4 -7 3
-2 14 12 20 25 20 25 16 3 -2 -13 1 -23 6 -23 6 0 7 -5 3 -12 -4 -7 -3 -8 5
-4 6 4 9 12 6 17 -3 5 1 6 9 3 9 -3 13 -11 9 -17 -4 -6 -1 -7 8 -1 22 14 36
13 36 -2 0 -11 -4 -11 -16 -2 -10 8 -9 4 3 -9 10 -13 22 -20 26 -18 5 3 11 0
13 -5 3 -6 4 -5 3 2 -2 7 -9 12 -15 10 -7 -1 -10 2 -6 7 10 16 35 0 35 -22 0
-20 0 -20 15 -1 14 19 15 19 21 -3 3 -12 13 -22 22 -22 39 -1 51 -5 46 -13 -3
-4 4 -8 15 -8 12 0 21 -5 21 -11 0 -5 -4 -7 -10 -4 -5 3 -10 1 -10 -5 0 -7 6
-10 14 -7 8 3 17 1 20 -6 3 -7 4 -1 1 13 -3 14 -2 19 1 12 3 -6 10 -10 15 -7
5 4 6 -1 3 -9 -7 -19 7 -21 23 -5 9 9 11 6 7 -12 -2 -13 -1 -18 2 -11 5 10 10
9 21 -5 8 -10 12 -13 9 -7 -3 6 1 11 9 11 11 0 12 -5 3 -21 l-11 -21 23 20 23
20 -5 -22 c-3 -12 -3 -22 1 -21 3 0 8 -1 11 -2 3 -1 21 -3 40 -4 23 -1 34 -6
32 -15 -2 -9 4 -10 20 -5 20 6 21 5 9 -10 -8 -9 -11 -19 -7 -23 3 -3 6 -1 6 5
0 6 9 9 20 7 11 -2 20 2 20 8 0 7 5 4 11 -6 6 -9 14 -15 20 -12 5 4 5 -5 -1
-22 -9 -26 -9 -27 5 -9 13 18 20 15 16 -7 0 -4 2 -6 6 -6 20 3 34 -2 28 -11
-4 -6 4 -6 21 0 22 9 31 8 43 -6 9 -9 11 -14 4 -10 -6 3 -15 1 -19 -5 -4 -8
-3 -9 4 -5 7 4 12 2 12 -4 0 -7 5 -6 14 2 8 7 11 18 8 23 -3 6 2 4 10 -3 9 -8
14 -21 12 -30 -5 -16 -5 -16 8 0 12 15 15 13 31 -14 13 -23 21 -28 30 -20 8 7
18 7 27 2 8 -5 17 -7 21 -4 4 2 5 -5 2 -17 -5 -19 -4 -20 14 -10 17 8 24 7 34
-6 8 -9 9 -14 3 -10 -6 3 -11 0 -11 -7 0 -8 7 -12 15 -8 9 3 13 1 9 -5 -3 -5
0 -10 8 -10 11 0 12 4 4 13 -7 9 -6 14 3 20 7 4 10 4 6 -1 -4 -4 -1 -14 7 -21
17 -17 29 -18 19 -1 -4 6 2 3 14 -7 12 -11 22 -15 23 -10 0 5 7 -4 14 -21 8
-18 14 -23 15 -13 0 10 7 16 19 15 11 0 17 -5 15 -9 -3 -5 -11 -5 -17 -2 -7 4
-8 3 -4 -1 4 -5 14 -10 22 -12 8 -2 23 -5 32 -6 9 -2 19 -9 21 -15 2 -7 8 -12
13 -12 6 0 7 6 4 13 -4 6 0 4 9 -6 8 -11 12 -26 10 -35 -5 -15 -4 -15 5 0 9
14 17 15 41 7 19 -7 27 -15 23 -25 -3 -9 0 -14 8 -12 8 2 13 -3 11 -10 -1 -8
2 -11 8 -7 6 3 8 11 4 16 -3 5 0 8 8 7 7 -2 12 3 10 10 -1 8 2 11 8 7 6 -3 7
-12 3 -18 -12 -19 -12 -36 -1 -44 6 -3 9 -2 5 3 -3 5 6 15 20 21 21 10 23 10
13 -2 -8 -10 -9 -19 -1 -32 6 -10 11 -12 11 -5 0 22 29 13 60 -19 16 -18 30
-27 30 -21 0 7 11 11 25 10 27 -3 33 -13 13 -22 -7 -3 -4 -4 8 -1 15 4 24 -1
33 -17 6 -13 9 -15 7 -6 -4 12 -1 15 10 11 7 -3 14 -12 14 -20 0 -16 40 -8 52
11 6 8 8 8 8 -1 0 -6 -5 -15 -11 -19 -15 -9 9 -23 33 -19 16 4 23 -6 19 -28
-1 -4 8 -3 19 3 22 12 60 -5 60 -27 0 -7 5 -13 11 -13 5 0 8 4 4 9 -3 5 -1 13
5 16 6 4 9 1 8 -7 -2 -7 3 -12 10 -10 8 1 11 -2 8 -7 -3 -5 1 -14 9 -21 13
-11 14 -10 9 5 -5 13 -4 16 4 11 7 -4 12 -13 12 -21 0 -8 4 -16 9 -19 5 -4 7
4 3 16 -5 19 -4 20 10 7 9 -7 14 -17 12 -20 -2 -4 3 -9 11 -12 10 -4 12 -1 9
11 -3 9 2 6 10 -8 8 -14 15 -19 16 -12 0 6 5 12 11 12 5 0 7 -5 3 -12 -5 -7
-2 -9 8 -5 10 3 15 0 14 -11 -1 -12 7 -17 26 -16 23 1 26 -2 18 -16 -6 -12 -5
-17 5 -17 8 0 12 4 9 9 -3 4 2 8 11 8 9 0 15 -7 13 -16 -2 -10 3 -19 10 -21 6
-3 12 0 12 7 0 6 -5 8 -12 4 -7 -5 -8 -3 -3 6 6 10 10 10 20 -3 6 -9 26 -17
43 -19 17 -1 28 -6 25 -11 -3 -4 1 -8 8 -6 26 3 39 -1 39 -12 0 -8 -6 -7 -17
2 -16 13 -17 12 -5 -3 8 -9 10 -23 6 -30 -4 -7 3 -3 15 10 17 17 26 20 35 13
7 -6 17 -7 21 -3 5 4 5 2 1 -5 -3 -6 -2 -14 4 -18 5 -3 10 -1 10 6 0 7 3 9 6
6 4 -4 1 -14 -7 -23 -13 -16 -12 -16 7 -6 14 7 25 7 35 0 11 -8 11 -9 -3 -4
-10 3 -20 1 -23 -3 -3 -5 9 -8 25 -7 17 1 30 -1 30 -6 0 -4 6 -7 13 -6 6 2 11
-3 9 -10 -1 -8 7 -16 18 -19 11 -3 20 -10 20 -15 0 -5 6 -6 13 -1 6 4 19 8 27
10 11 1 11 -1 -3 -11 -16 -12 -16 -14 -2 -20 9 -3 14 -2 11 3 -6 10 24 25 32
16 3 -3 0 -5 -6 -5 -6 0 -10 -9 -9 -20 1 -11 5 -20 10 -20 5 0 7 7 3 15 -4 12
-2 13 13 6 10 -6 22 -7 27 -3 5 4 3 0 -3 -9 -10 -13 -8 -15 17 -13 17 1 30 -2
30 -7 0 -5 -5 -9 -12 -9 -6 0 -8 -3 -5 -6 4 -4 14 -1 24 7 15 12 16 12 10 -5
-6 -15 -5 -16 6 -8 10 8 16 6 25 -9 7 -10 17 -19 24 -19 7 0 3 6 -8 14 -10 8
-16 18 -11 22 4 4 7 2 7 -4 0 -16 27 -15 34 1 3 6 3 1 0 -12 -5 -20 -3 -23 11
-17 16 6 16 4 4 -11 -7 -10 -10 -15 -5 -11 5 4 17 3 27 -3 15 -8 18 -6 13 8
-5 17 -5 17 6 0 6 -9 9 -21 5 -26 -3 -5 0 -13 6 -17 8 -4 9 -3 5 4 -5 9 3 11
27 10 25 -2 33 -7 29 -17 -3 -9 -1 -12 6 -7 7 4 12 2 12 -4 0 -6 5 -8 10 -5 6
3 10 0 10 -8 0 -19 27 -32 74 -35 12 -1 16 -7 13 -17 -4 -8 -1 -17 5 -21 7 -4
8 -3 4 4 -4 7 -2 12 4 12 6 0 8 5 4 13 -5 8 -2 8 9 -2 19 -15 23 -26 5 -15 -7
4 -8 3 -4 -4 4 -7 15 -12 24 -12 15 0 15 -2 2 -10 -13 -8 -13 -10 1 -10 9 0
22 -6 28 -13 8 -10 7 -14 -4 -14 -8 0 -12 4 -9 9 3 4 1 8 -5 8 -5 0 -9 -9 -8
-19 0 -11 4 -18 8 -15 4 2 10 -3 13 -12 3 -8 11 -12 17 -8 8 5 9 3 3 -7 -15
-24 -14 -41 2 -35 9 3 12 2 9 -5 -4 -6 -12 -8 -19 -6 -7 3 -12 -6 -11 -23 0
-16 2 -27 5 -25 3 1 14 -7 25 -19 11 -11 16 -18 11 -13 -6 4 -16 7 -24 7 -9 0
-6 -7 9 -21 13 -11 18 -18 12 -14 -7 3 -13 1 -13 -4 0 -6 6 -11 13 -11 8 0 14
-7 14 -15 0 -11 -4 -12 -14 -4 -18 15 -17 4 2 -14 8 -8 16 -21 17 -28 2 -8 10
-20 18 -27 13 -11 11 -11 -8 -2 -13 7 -26 9 -29 6 -3 -3 1 -8 9 -11 9 -4 13
-17 12 -38 -1 -17 1 -36 4 -42 4 -5 7 -16 9 -24 1 -8 6 -17 12 -20 13 -8 10
-54 -4 -63 -6 -5 -6 -8 2 -8 7 0 17 8 23 18 9 14 11 14 7 1 -3 -9 0 -22 6 -28
9 -9 8 -11 -5 -6 -11 4 -18 2 -18 -4 0 -6 10 -11 23 -11 18 0 19 -2 7 -10 -12
-8 -13 -12 -2 -19 19 -11 19 -15 4 -33 -10 -13 -9 -16 10 -21 22 -6 22 -7 3
-21 -16 -12 -17 -16 -5 -17 8 -1 18 -1 22 0 4 0 5 -6 2 -14 -4 -8 -10 -13 -14
-10 -5 3 -12 0 -16 -6 -5 -8 -3 -9 6 -4 10 6 12 4 6 -10 -6 -16 -4 -16 11 -4
11 9 14 10 9 2 -4 -8 -2 -13 6 -14 10 0 10 -2 1 -6 -7 -2 -13 -9 -13 -14 0 -6
6 -7 13 -3 6 4 9 4 5 -1 -4 -4 -3 -15 2 -25 6 -11 4 -26 -5 -44 -9 -16 -10
-24 -3 -20 8 5 9 1 4 -12 -6 -15 -5 -17 5 -6 7 6 18 12 23 12 6 0 5 -4 -2 -9
-11 -6 -10 -11 3 -25 9 -9 13 -16 8 -16 -5 0 -14 5 -19 10 -7 7 -11 6 -11 -5
0 -8 6 -15 13 -15 7 0 16 -5 20 -12 4 -7 3 -8 -4 -4 -17 10 -15 -19 2 -34 8
-6 12 -19 9 -27 -4 -11 -2 -14 5 -9 7 4 12 2 12 -3 0 -6 -5 -11 -11 -11 -6 0
-9 -6 -6 -12 2 -7 -3 -18 -12 -25 -14 -10 -13 -11 5 -7 12 3 26 -1 35 -12 9
-11 9 -15 2 -10 -9 5 -13 -2 -13 -24 0 -21 4 -29 12 -24 7 5 8 3 2 -7 -11 -18
-12 -69 -2 -63 13 8 9 -41 -4 -56 -11 -12 -10 -12 2 -4 27 18 45 11 45 -18 1
-21 -2 -25 -12 -16 -18 15 -16 3 3 -16 12 -12 12 -16 2 -16 -10 0 -9 -3 2 -10
12 -8 13 -13 3 -29 -11 -17 -10 -19 4 -14 11 4 14 3 9 -5 -4 -7 -1 -12 9 -12
9 0 13 5 10 10 -3 6 -4 10 -1 10 17 0 13 -22 -6 -29 -17 -7 -19 -10 -5 -10 15
-1 22 -19 18 -44 -1 -4 4 -18 10 -30 l12 -22 -23 20 -23 20 18 -27 c9 -15 21
-25 26 -23 4 3 6 -3 4 -15 -2 -11 1 -22 6 -25 5 -4 7 -10 4 -15 -3 -5 -1 -11
5 -15 6 -4 7 -12 3 -18 -12 -19 -14 -47 -3 -47 5 0 7 -7 3 -15 -3 -10 0 -15 8
-13 15 3 19 -20 7 -44 -5 -11 -5 -18 2 -18 5 0 10 -7 10 -16 0 -8 5 -12 10 -9
13 8 8 -17 -5 -27 -6 -5 -4 -12 5 -19 13 -9 12 -10 -2 -5 -10 3 -20 1 -23 -5
-4 -5 -3 -9 2 -8 19 3 33 -2 33 -12 0 -5 -4 -8 -9 -4 -5 3 -13 0 -17 -6 -4 -7
-3 -9 3 -6 16 10 44 -26 33 -43 -7 -11 -10 -12 -10 -2 0 7 -5 10 -11 6 -7 -4
0 -14 18 -26 28 -20 28 -20 3 -14 -24 5 -24 4 -6 -9 10 -8 24 -11 30 -8 6 4 6
0 -1 -9 -7 -8 -9 -19 -5 -23 4 -5 1 -5 -6 -1 -7 4 -9 12 -6 18 4 7 2 8 -5 4
-8 -6 -9 -12 -2 -20 6 -7 8 -16 4 -20 -4 -4 0 -4 8 -1 10 4 16 0 16 -10 0 -8
-4 -15 -9 -15 -4 0 -8 -4 -8 -10 0 -5 7 -10 17 -10 14 0 14 -3 -3 -22 -10 -12
-13 -18 -6 -14 6 4 12 2 12 -4 0 -7 10 -21 23 -32 12 -11 16 -17 10 -13 -8 4
-13 0 -13 -10 0 -9 4 -14 9 -11 11 7 9 -13 -3 -33 -7 -10 -5 -12 4 -6 9 5 10
2 6 -11 -3 -11 2 -31 13 -47 10 -16 16 -38 13 -49 -3 -11 1 -24 9 -29 9 -6 10
-9 2 -9 -6 0 -11 -9 -10 -20 1 -12 7 -18 14 -16 7 3 13 1 13 -4 0 -6 -8 -10
-17 -10 -15 0 -16 -2 -3 -9 8 -6 17 -8 20 -6 4 2 7 -2 7 -10 0 -18 -9 -19 -24
-4 -8 8 -13 8 -18 0 -4 -7 -1 -10 7 -9 7 2 12 -5 12 -15 -2 -14 1 -15 12 -6 8
7 17 9 21 5 3 -3 1 -6 -5 -6 -6 0 -9 -6 -6 -14 4 -11 -1 -13 -18 -10 -21 4
-21 3 -3 -5 11 -4 23 -7 27 -5 4 3 10 -1 14 -7 4 -7 3 -9 -4 -5 -6 3 -13 2
-17 -4 -3 -5 0 -10 8 -10 7 0 14 -7 14 -15 0 -11 -4 -12 -14 -3 -11 8 -12 7
-7 -6 3 -9 10 -16 15 -16 5 0 9 -5 9 -11 0 -5 -4 -8 -9 -5 -5 3 -15 -2 -22
-11 -12 -15 -12 -16 1 -8 19 12 40 15 41 7 0 -4 2 -15 4 -25 2 -9 -1 -15 -6
-11 -5 3 -7 10 -4 15 4 5 2 9 -4 9 -16 0 -22 -18 -9 -23 10 -4 9 -8 -2 -17
-12 -9 -10 -10 10 -4 23 6 24 6 10 -11 -9 -11 -10 -16 -2 -11 7 4 12 1 12 -9
0 -10 5 -14 13 -10 6 4 1 -3 -13 -16 l-25 -22 25 7 c24 7 24 6 6 -8 -19 -15
-11 -22 17 -17 5 1 6 -3 2 -9 -3 -6 -10 -8 -14 -6 -4 3 -8 -1 -8 -10 0 -9 7
-13 21 -9 12 3 15 2 9 -1 -7 -3 -13 -21 -13 -40 0 -21 4 -33 10 -29 6 3 10 -4
10 -16 0 -20 -2 -21 -18 -8 -10 8 -5 2 10 -13 28 -27 37 -45 18 -33 -5 3 -10
1 -10 -4 0 -6 5 -11 11 -11 5 0 7 -5 4 -10 -4 -6 -11 -8 -16 -5 -15 10 -10 -2
8 -16 14 -12 16 -12 8 0 -5 10 -4 12 4 7 6 -4 9 -12 6 -17 -4 -5 -2 -9 2 -9 5
0 10 -10 10 -22 1 -13 7 -24 13 -26 7 -3 4 -9 -6 -16 -13 -10 -14 -15 -4 -21
9 -6 11 -4 5 6 -5 8 -5 11 -1 7 4 -3 6 -8 4 -11 -1 -2 4 -12 12 -23 14 -17 14
-18 -2 -6 -12 10 -18 10 -24 1 -4 -7 -3 -9 3 -6 6 4 13 0 17 -8 3 -8 1 -15 -5
-15 -6 0 -3 -7 6 -16 21 -21 11 -31 -12 -13 -16 12 -15 11 1 -8 10 -13 23 -20
28 -17 5 3 4 -3 -4 -15 -7 -12 -17 -21 -21 -21 -5 0 -6 -7 -3 -16 3 -8 2 -12
-4 -9 -6 3 -15 -6 -20 -20 -6 -17 -14 -24 -22 -19 -7 4 -4 -3 7 -17 15 -18 16
-20 3 -10 -15 11 -24 10 -15 -2 7 -11 -29 -38 -45 -34 -10 3 -21 0 -25 -5 -3
-6 -2 -8 3 -5 6 3 16 2 24 -4 12 -7 10 -9 -7 -9 -12 0 -25 -5 -29 -12 -4 -7
-3 -8 4 -4 7 4 12 1 12 -8 0 -10 -7 -13 -21 -11 -17 3 -19 2 -9 -10 10 -12 9
-16 -4 -21 -14 -5 -14 -9 -4 -22 11 -13 10 -14 -8 -4 -11 6 -26 7 -33 3 -10
-6 -9 -10 4 -14 10 -5 14 -3 9 5 -4 7 -3 8 5 4 9 -6 9 -11 0 -22 -9 -11 -15
-12 -26 -3 -11 10 -12 8 -3 -16 9 -25 9 -26 -5 -15 -12 10 -15 10 -15 -4 0
-10 -4 -14 -10 -11 -5 3 -10 -1 -10 -10 0 -10 5 -13 13 -9 7 4 9 3 4 -2 -5 -5
-13 -10 -18 -10 -5 -1 -13 -2 -18 -3 -4 0 -8 -11 -7 -23 1 -15 -5 -22 -21 -23
-13 -1 -26 -5 -30 -10 -5 -4 -1 -6 8 -3 9 4 16 1 16 -7 0 -8 -3 -14 -6 -13 -3
0 -15 0 -26 -1 -18 -2 -18 -3 5 -16 l25 -15 -28 4 c-15 3 -25 1 -22 -4 7 -12
-5 -40 -17 -40 -7 0 -7 4 0 13 7 9 8 17 1 27 -9 13 -10 13 -6 0 2 -8 -3 -24
-12 -34 -9 -11 -10 -16 -3 -12 6 4 12 2 12 -3 0 -6 -4 -11 -10 -11 -5 0 -7 -8
-3 -17 5 -16 4 -15 -9 1 -17 21 -27 12 -30 -28 -1 -15 -6 -22 -13 -17 -5 4
-18 0 -27 -11 -19 -19 -10 -26 9 -7 8 8 13 7 18 -2 5 -7 4 -10 -2 -6 -6 4 -14
0 -17 -9 -3 -8 -10 -12 -16 -9 -8 5 -15 -22 -11 -47 0 -4 -5 -5 -12 -3 -6 3
-23 -4 -36 -14 -18 -14 -21 -20 -11 -26 9 -6 11 -4 5 5 -5 9 -4 11 4 6 15 -10
4 -27 -14 -20 -10 4 -13 0 -10 -16 3 -16 1 -19 -8 -11 -9 7 -17 7 -27 -1 -12
-8 -12 -9 3 -4 9 3 17 1 17 -4 0 -9 -15 -14 -33 -11 -5 1 -6 -3 -2 -9 3 -6 11
-7 17 -4 7 5 8 2 4 -5 -5 -7 -14 -10 -21 -7 -20 7 -43 -23 -26 -34 10 -6 8
-10 -8 -15 -11 -3 -21 -11 -21 -18 0 -8 3 -8 12 1 7 7 17 12 22 12 13 -1 -25
-24 -39 -25 -5 0 -13 4 -17 10 -5 6 -8 5 -8 -3 0 -7 7 -15 16 -19 13 -5 13 -7
2 -14 -19 -12 -30 -11 -22 3 4 6 3 8 -4 4 -6 -3 -9 -16 -7 -27 3 -16 0 -19
-15 -14 -12 4 -20 2 -20 -5 0 -6 5 -8 10 -5 6 3 10 -1 10 -10 0 -13 -4 -14
-22 -4 -19 9 -21 9 -10 -2 17 -19 15 -29 -5 -22 -15 6 -16 4 -6 -8 17 -21 0
-47 -20 -31 -16 14 -28 6 -20 -14 3 -8 10 -11 16 -7 6 3 7 1 3 -6 -5 -8 -12
-9 -20 -2 -8 7 -12 4 -13 -10 -1 -12 3 -17 9 -13 6 4 8 2 4 -4 -3 -6 -15 -9
-26 -7 -17 3 -19 1 -10 -15 8 -16 8 -18 -4 -14 -8 3 -23 0 -33 -6 -15 -9 -15
-11 -1 -6 9 2 19 -1 22 -9 3 -9 0 -12 -8 -9 -8 3 -17 0 -22 -7 -5 -8 -3 -10 7
-4 11 6 12 5 2 -5 -10 -11 -15 -11 -28 0 -14 11 -15 10 -6 -13 7 -17 7 -28 0
-32 -5 -4 -6 -11 -3 -17 4 -7 2 -8 -5 -4 -6 4 -9 12 -6 17 4 5 1 9 -4 9 -6 0
-11 -7 -11 -15 0 -8 -5 -15 -11 -15 -5 0 -7 5 -3 12 4 7 3 8 -4 4 -7 -4 -8
-15 -2 -30 7 -20 6 -23 -16 -20 -13 1 -22 -2 -18 -7 3 -5 -2 -12 -10 -15 -9
-3 -16 -11 -16 -17 0 -6 11 -1 23 11 17 17 24 18 24 8 0 -8 -5 -14 -11 -13 -6
1 -10 -3 -9 -10 1 -6 -7 -10 -20 -9 -17 2 -23 -3 -24 -21 -5 -50 -6 -54 -17
-43 -17 17 -30 11 -15 -6 12 -15 11 -16 -9 -10 -17 6 -21 4 -16 -8 3 -9 11
-13 17 -9 6 3 7 1 3 -6 -6 -9 -11 -9 -22 0 -8 6 -17 9 -21 5 -3 -3 -1 -6 4 -6
6 0 10 -6 9 -12 -3 -24 -18 -39 -32 -34 -7 3 -16 1 -19 -5 -4 -5 -11 -6 -17
-3 -7 4 -8 2 -4 -5 4 -6 11 -9 15 -7 3 3 7 -4 7 -14 0 -10 -3 -18 -6 -18 -22
2 -37 -5 -48 -23 -10 -15 -10 -19 -1 -14 7 5 10 3 7 -6 -3 -8 -11 -13 -18 -11
-19 4 -38 -17 -33 -37 3 -10 0 -22 -6 -25 -7 -5 -9 0 -5 11 3 10 -4 2 -16 -17
-12 -19 -27 -37 -32 -39 -6 -2 -4 -7 3 -12 11 -7 10 -9 -4 -9 -11 0 -15 -5
-11 -11 4 -8 -1 -9 -17 -4 -23 7 -23 7 -4 -8 11 -8 24 -13 29 -10 5 4 6 1 2
-6 -6 -9 -11 -9 -22 0 -12 10 -20 7 -39 -11 -14 -13 -25 -29 -25 -36 0 -7 -15
-25 -32 -40 -18 -15 -25 -25 -16 -21 10 3 20 2 23 -3 4 -6 -3 -10 -14 -10 -19
0 -26 -11 -22 -33 1 -5 -4 -5 -10 -1 -9 5 -10 2 -5 -12 4 -10 4 -15 0 -11 -8
8 -37 -30 -41 -51 -1 -8 -5 -17 -9 -20 -4 -4 -4 1 -1 11 4 9 2 17 -3 17 -10 0
-14 -13 -11 -40 1 -8 -5 -4 -14 10 l-15 25 6 -29 c5 -19 3 -27 -3 -23 -6 4
-17 -1 -24 -10 -12 -14 -11 -15 11 -8 24 7 24 6 5 -8 -10 -8 -25 -13 -32 -10
-19 7 -16 -8 4 -22 15 -11 14 -12 -12 -8 -23 3 -27 2 -15 -6 10 -7 11 -11 3
-11 -7 0 -13 -6 -13 -14 0 -9 -7 -12 -19 -9 -22 6 -37 -12 -20 -23 8 -4 9 -3
5 4 -4 7 -2 12 4 12 22 0 3 -25 -19 -26 -28 -2 -36 -10 -16 -18 11 -4 14 -2 9
6 -4 7 -3 8 5 4 14 -9 -3 -36 -23 -36 -6 0 -4 5 4 10 9 6 10 10 3 10 -6 0 -15
-5 -18 -10 -4 -6 -11 -7 -17 -4 -7 4 -8 2 -4 -5 4 -6 12 -9 17 -6 5 4 9 -1 9
-10 0 -12 -6 -15 -22 -10 -18 5 -20 4 -8 -4 10 -7 11 -11 2 -11 -6 0 -11 -3
-11 -7 3 -20 -2 -26 -12 -13 -8 12 -10 12 -8 -5 3 -38 -1 -47 -16 -41 -9 3
-19 -3 -26 -17 -11 -19 -10 -20 3 -10 12 10 15 10 15 -2 0 -7 -3 -14 -6 -13
-19 2 -31 -3 -26 -11 3 -5 0 -13 -6 -17 -8 -4 -9 -3 -5 4 4 7 2 12 -3 12 -6 0
-12 -4 -12 -10 -2 -11 -5 -25 -9 -37 -1 -5 -2 -11 -1 -16 0 -4 -5 -6 -11 -5
-7 2 -13 -4 -12 -13 1 -9 -5 -16 -12 -16 -14 0 -10 11 14 40 8 9 13 19 10 22
-2 2 -15 -13 -29 -34 -13 -22 -28 -36 -34 -33 -5 3 -7 2 -3 -3 11 -11 -12 -36
-25 -28 -6 3 -7 1 -3 -6 4 -7 -2 -15 -16 -20 -21 -9 -10 -17 16 -12 5 1 4 -4
-3 -12 -13 -16 -27 -17 -51 -3 -12 7 -13 6 -2 -5 19 -20 15 -24 -20 -23 -19 1
-32 7 -30 13 3 17 -8 13 -30 -11 -14 -17 -18 -18 -14 -6 4 13 1 15 -12 11 -9
-4 -20 -11 -24 -17 -5 -7 -8 -6 -8 3 0 8 -6 11 -16 7 -8 -3 -13 -2 -10 2 2 4
-4 8 -14 8 -12 0 -16 -4 -10 -11 6 -7 2 -11 -10 -11 -10 0 -16 4 -14 8 3 4 0
9 -5 9 -6 1 -15 3 -21 4 -5 1 -12 3 -15 4 -10 2 -20 -4 -17 -12 1 -5 -3 -7
-10 -4 -7 2 -12 10 -10 16 3 17 -8 13 -30 -11 -14 -17 -18 -18 -14 -6 4 13 1
15 -12 11 -9 -4 -20 -11 -24 -17 -5 -7 -8 -6 -8 3 0 8 -6 11 -16 7 -8 -3 -13
-2 -10 2 2 4 -4 8 -14 8 -12 0 -16 -4 -10 -11 6 -7 2 -11 -10 -11 -10 0 -16 4
-14 8 3 4 0 9 -5 9 -6 1 -15 3 -21 4 -5 1 -12 3 -15 4 -9 2 -20 -4 -18 -11 1
-3 -4 -9 -13 -12 -8 -3 -12 -2 -9 4 3 6 1 11 -4 11 -6 1 -15 3 -21 4 -5 1 -12
3 -15 4 -10 2 -20 -4 -17 -12 1 -5 -3 -7 -10 -4 -7 2 -12 10 -10 16 3 17 -8
13 -30 -12 -14 -16 -18 -17 -14 -5 4 13 1 15 -12 11 -9 -4 -20 -11 -24 -17 -5
-7 -8 -6 -8 3 0 8 -6 11 -16 7 -8 -3 -13 -2 -10 2 2 4 -4 8 -14 8 -12 0 -16
-4 -10 -11 6 -7 2 -11 -10 -11 -10 0 -16 4 -14 8 3 4 0 9 -5 9 -6 1 -15 3 -21
4 -5 1 -12 3 -15 4 -10 2 -20 -4 -17 -12 1 -5 -3 -7 -10 -4 -7 2 -12 10 -10
16 3 17 -8 13 -30 -12 -14 -16 -18 -17 -14 -5 4 13 1 15 -12 11 -9 -4 -20 -11
-24 -17 -5 -7 -8 -6 -8 3 0 8 -6 11 -16 7 -8 -3 -12 -2 -9 4 7 12 -23 2 -44
-14 -11 -8 -13 -8 -7 2 4 6 2 13 -3 13 -6 1 -15 3 -21 4 -5 1 -12 3 -15 4 -10
2 -20 -4 -17 -12 1 -5 -3 -7 -10 -4 -7 2 -12 10 -10 16 3 17 -8 13 -30 -12
-14 -16 -18 -17 -14 -5 4 13 1 15 -12 11 -9 -4 -20 -11 -24 -17 -5 -7 -8 -6
-8 3 0 8 -6 11 -16 7 -8 -3 -13 -2 -10 2 2 4 -4 8 -14 8 -12 0 -16 -4 -10 -11
6 -7 2 -11 -10 -11 -10 0 -16 4 -14 8 3 4 0 9 -5 9 -6 1 -15 3 -21 4 -5 1 -12
3 -15 4 -10 2 -20 -4 -17 -12 1 -5 -3 -7 -10 -4 -7 2 -12 10 -10 16 3 17 -8
13 -30 -11 -14 -17 -18 -18 -14 -6 4 13 1 15 -12 11 -9 -4 -20 -11 -24 -17 -5
-7 -8 -6 -8 3 0 8 -6 11 -16 7 -8 -3 -12 -2 -9 4 7 12 -23 2 -44 -14 -11 -8
-13 -8 -7 2 4 6 2 13 -3 13 -6 1 -15 3 -21 4 -5 1 -12 3 -15 4 -12 3 -20 -2
-17 -11 1 -5 -3 -8 -10 -5 -7 2 -12 10 -10 16 3 17 -8 13 -30 -12 -14 -16 -18
-17 -14 -5 4 13 1 15 -12 11 -9 -4 -20 -11 -24 -17 -5 -7 -8 -6 -8 3 0 8 -6
11 -16 7 -8 -3 -13 -2 -10 2 2 4 -4 8 -14 8 -12 0 -16 -4 -10 -11 6 -7 2 -11
-10 -11 -10 0 -16 4 -14 8 3 4 0 9 -5 9 -6 1 -15 3 -21 4 -5 1 -12 3 -15 4
-12 3 -20 -2 -17 -11 1 -5 -3 -8 -10 -5 -7 2 -12 10 -10 16 3 17 -8 13 -30
-11 -14 -17 -18 -18 -14 -6 4 13 1 15 -12 11 -9 -4 -20 -11 -24 -17 -5 -7 -8
-6 -8 3 0 8 -6 11 -16 7 -8 -3 -12 -2 -9 4 7 12 -23 2 -44 -14 -11 -8 -13 -8
-7 1 4 7 2 14 -3 14 -6 1 -15 3 -21 4 -5 1 -12 3 -15 4 -10 2 -20 -4 -17 -12
1 -5 -3 -7 -10 -4 -7 2 -12 10 -10 16 3 17 -8 13 -30 -11 -14 -17 -18 -18 -14
-6 4 13 1 15 -12 11 -9 -4 -20 -11 -24 -17 -5 -7 -8 -6 -8 3 0 8 -6 11 -16 7
-8 -3 -13 -2 -10 2 2 4 -4 8 -14 8 -12 0 -16 -4 -10 -11 6 -7 2 -11 -10 -11
-10 0 -16 4 -14 8 3 4 0 9 -5 9 -6 1 -15 3 -21 4 -5 1 -12 3 -15 4 -10 2 -20
-4 -17 -12 1 -5 -3 -7 -10 -4 -7 2 -12 10 -10 16 3 17 -8 13 -30 -12 -14 -16
-18 -17 -14 -5 4 13 1 15 -12 11 -9 -4 -20 -11 -24 -17 -5 -7 -8 -6 -8 3 0 8
-6 11 -16 7 -8 -3 -12 -2 -9 4 7 12 -23 2 -44 -14 -11 -8 -13 -8 -7 2 4 6 2
13 -3 13 -6 1 -15 3 -21 4 -5 1 -12 3 -15 4 -10 2 -20 -4 -17 -12 1 -5 -3 -7
-10 -4 -7 2 -12 12 -11 22 1 14 -5 11 -24 -11 -13 -16 -22 -21 -19 -12 4 13 1
15 -12 11 -9 -4 -20 -11 -24 -17 -5 -7 -8 -6 -8 3 0 8 -6 11 -16 7 -8 -3 -12
-2 -9 4 7 12 -23 2 -44 -14 -11 -8 -13 -8 -8 0 11 19 -21 25 -33 6 -11 -16
-11 -16 -6 0 3 10 1 20 -4 23 -6 4 -10 -1 -10 -10 0 -9 -6 -15 -12 -12 -7 2
-12 12 -11 22 1 14 -5 11 -24 -11 -13 -16 -22 -22 -20 -14 4 13 -2 15 -27 12
-17 -2 -40 -3 -51 -3 -10 0 -26 -5 -34 -12 -10 -8 -13 -8 -8 -1 11 19 -21 25
-33 6 -11 -16 -11 -16 -6 0 3 10 1 20 -4 23 -6 4 -10 -1 -10 -10 0 -9 -6 -15
-12 -12 -7 2 -12 12 -11 22 1 14 -5 11 -24 -11 -13 -16 -22 -22 -19 -12 6 19
-14 18 -40 -2 -11 -9 -15 -10 -10 -2 4 6 4 12 -1 13 -4 0 -18 2 -30 3 -16 2
-20 -1 -13 -9 6 -7 3 -11 -10 -11 -10 0 -16 5 -13 10 4 5 -1 7 -11 3 -10 -4
-15 -3 -11 3 3 6 1 10 -4 10 -6 0 -11 -7 -11 -16 0 -8 -5 -12 -10 -9 -6 4 -8
10 -5 15 3 4 -3 7 -13 6 -10 0 -16 5 -14 14 3 12 0 12 -15 -1 -19 -17 -43 -15
-43 3 0 7 5 7 13 -1 10 -8 14 -7 14 2 0 7 -10 14 -21 15 -11 0 -23 7 -25 13
-2 7 -15 23 -28 35 -23 21 -23 23 -6 33 24 14 7 14 -18 0 -18 -9 -19 -8 -10 9
8 14 6 22 -10 35 -23 21 -36 22 -20 3 9 -11 9 -16 -1 -22 -7 -4 -10 -4 -6 1 4
4 -4 22 -17 39 -23 30 -25 35 -25 57 0 5 -4 8 -9 4 -5 -3 -12 -1 -15 4 -4 5
-1 13 5 17 8 5 9 3 4 -6 -5 -9 -4 -11 4 -6 6 4 9 12 5 17 -3 5 -10 7 -15 4 -5
-4 -17 -1 -26 5 -17 11 -17 11 1 6 15 -5 17 -4 8 7 -7 8 -8 18 -4 23 4 4 -1 2
-11 -5 -9 -8 -20 -11 -24 -7 -3 3 -1 6 5 6 7 0 12 5 12 11 0 5 -5 7 -12 3 -8
-5 -9 -2 -5 9 4 10 -1 20 -11 27 -15 8 -15 11 -2 21 13 9 13 10 -2 6 -9 -3
-22 1 -28 9 -7 8 -9 14 -6 14 4 0 0 7 -9 16 -8 9 -21 14 -29 11 -7 -3 -13 1
-13 8 0 7 7 11 16 8 14 -4 14 -3 1 5 -10 8 -19 7 -29 -1 -11 -9 -13 -9 -8 0 4
7 -2 18 -14 26 -15 11 -17 16 -7 20 11 4 10 7 -1 18 -8 8 -11 9 -8 3 3 -6 0
-11 -8 -11 -10 0 -11 5 -5 17 7 13 4 22 -10 35 -17 15 -22 16 -37 4 -17 -13
-17 -13 0 7 17 20 14 34 -7 34 -6 0 -4 -5 4 -11 10 -7 11 -9 2 -7 -8 2 -12 7
-10 12 2 4 -8 14 -22 23 -18 10 -19 13 -5 9 19 -6 20 -6 1 9 -10 8 -24 12 -30
8 -6 -3 -8 -2 -3 2 4 5 0 17 -10 27 -15 17 -15 18 3 19 11 0 13 3 6 6 -6 2 -9
10 -6 16 5 9 3 8 -6 0 -9 -9 -19 -9 -32 -2 -16 9 -17 13 -6 27 11 14 11 15 -6
9 -16 -6 -17 -5 -6 8 11 13 10 14 -6 8 -16 -6 -17 -4 -6 9 11 13 8 15 -20 12
-18 -2 -28 0 -21 4 8 5 8 11 -1 24 -7 10 -15 16 -17 13 -3 -2 -6 7 -7 20 -1
14 3 25 10 25 6 0 8 3 5 6 -4 4 -14 1 -23 -7 -16 -13 -17 -12 -12 8 5 17 2 20
-11 15 -14 -5 -14 -4 -1 14 8 10 11 16 6 12 -10 -8 -51 11 -42 19 3 3 -2 12
-10 20 -8 8 -11 19 -8 25 4 5 -4 5 -16 -2 -14 -7 -20 -8 -16 -1 4 6 -4 20 -18
32 -14 12 -23 25 -21 29 3 5 -2 11 -11 14 -12 5 -14 13 -9 34 6 26 6 26 -9 7
-13 -16 -15 -17 -10 -2 4 11 1 17 -10 17 -9 0 -15 3 -15 8 4 22 -3 32 -23 33
-22 1 -22 1 2 9 24 8 24 8 3 9 -13 1 -23 5 -23 10 0 5 -9 13 -20 16 -11 3 -20
11 -20 17 0 6 6 6 15 -2 9 -7 18 -11 21 -8 2 3 -10 13 -28 21 -18 9 -26 17
-18 17 12 0 12 2 2 9 -8 4 -13 12 -13 17 1 5 -3 10 -9 10 -5 1 -14 2 -20 3 -5
0 -10 5 -10 11 0 5 8 7 18 4 16 -5 16 -5 0 9 -14 11 -15 16 -5 27 10 10 9 11
-3 4 -23 -13 -39 -13 -47 -2 -3 7 -1 8 5 4 7 -4 12 -1 12 8 0 10 -6 13 -18 9
-15 -6 -16 -5 -2 13 8 10 11 16 6 12 -10 -8 -42 23 -50 49 -4 11 -17 26 -31
33 -18 10 -22 17 -14 26 8 9 5 11 -11 7 -27 -7 -44 15 -27 36 10 12 9 13 -13
1 -20 -10 -22 -10 -13 0 9 10 8 16 -3 27 -8 8 -11 20 -7 26 4 7 -1 6 -10 -2
-15 -12 -17 -12 -11 4 6 14 4 16 -7 10 -12 -8 -12 -6 -1 8 12 14 11 16 -5 13
-10 -2 -25 3 -33 12 -13 14 -13 15 1 10 10 -4 15 0 15 13 0 13 -3 15 -13 7 -9
-7 -13 -7 -13 0 0 6 -9 13 -19 17 -11 3 -18 12 -15 20 3 7 0 16 -7 21 -8 5
-10 3 -4 -6 5 -9 4 -11 -4 -6 -9 6 -9 11 0 22 6 7 16 11 22 7 6 -4 7 -1 2 6
-5 9 -10 10 -18 2 -6 -6 -18 -11 -26 -11 -14 0 -14 1 -1 10 10 6 11 10 3 10
-7 0 -13 5 -13 11 0 5 4 8 8 5 5 -3 9 1 9 9 0 8 -4 15 -9 15 -4 0 -8 -4 -8
-10 0 -5 -8 -10 -17 -10 -15 0 -16 2 -3 10 12 8 12 10 -5 10 -17 0 -17 2 -5
10 13 9 13 10 0 11 -8 1 -18 1 -22 0 -5 0 -8 6 -8 14 0 13 4 14 22 4 18 -9 20
-9 12 0 -6 7 -18 13 -25 15 -8 1 -24 6 -37 10 -21 7 -22 9 -6 20 16 12 16 13
0 19 -12 5 -15 3 -11 -6 4 -6 0 -4 -8 5 -8 10 -17 14 -21 10 -4 -4 -6 0 -4 8
2 8 -3 14 -10 12 -8 -1 -11 2 -7 8 5 8 13 6 24 -4 10 -9 22 -16 27 -16 4 0 -2
7 -14 16 -12 8 -19 20 -16 26 4 7 0 7 -13 0 -15 -9 -20 -8 -20 3 0 8 4 12 8 9
4 -2 11 0 14 6 4 6 1 9 -7 8 -7 -2 -12 4 -10 12 1 10 -3 9 -14 -5 -16 -20 -16
-20 -9 3 5 19 3 23 -10 20 -11 -2 -19 4 -21 15 -3 21 -35 48 -47 40 -5 -3 -4
3 1 14 7 13 7 24 0 34 -8 11 -9 11 -4 -4 3 -9 1 -17 -4 -17 -6 0 -10 10 -10
22 0 21 0 21 -21 2 -22 -19 -22 -19 -8 5 11 18 11 25 2 28 -7 3 -14 17 -14 31
-1 17 -3 21 -6 10 -7 -29 -19 -20 -17 12 1 17 -3 30 -8 30 -6 0 -7 -7 -4 -16
5 -14 4 -15 -8 -5 -8 7 -12 19 -10 26 6 15 -29 38 -42 27 -5 -4 -3 0 3 8 8 10
9 21 3 30 -7 10 -10 11 -10 3 0 -18 -17 -16 -24 3 -3 8 -2 12 3 9 5 -3 13 0
17 6 4 8 3 9 -4 5 -11 -6 -16 5 -14 25 1 4 -8 4 -20 1 -13 -3 -24 1 -30 12 -5
9 -13 14 -17 12 -4 -3 -8 1 -8 9 0 8 4 12 9 9 4 -3 8 0 8 5 0 6 -5 11 -11 11
-8 0 -7 5 1 15 11 13 10 14 -5 9 -14 -6 -16 -4 -10 7 6 11 5 12 -6 1 -7 -6
-18 -12 -24 -12 -5 0 -3 5 5 10 10 6 11 10 3 10 -7 0 -13 5 -13 11 0 5 5 7 11
3 6 -3 3 5 -6 20 -14 21 -20 24 -31 15 -12 -10 -13 -8 -8 6 5 12 4 16 -3 12
-7 -5 -9 1 -6 15 5 22 5 22 -9 4 -12 -15 -17 -16 -23 -6 -5 8 -4 11 3 6 7 -4
10 5 9 28 -1 19 -5 32 -10 29 -4 -2 -4 -10 -1 -16 4 -7 3 -9 -1 -4 -15 13 -13
46 2 40 7 -3 13 0 13 6 0 6 -4 11 -10 11 -5 0 -10 5 -10 11 0 5 6 7 13 3 7 -5
6 0 -3 11 -13 17 -13 18 0 13 11 -4 15 2 16 23 1 16 -2 26 -7 24 -4 -3 -5 4
-2 16 3 11 9 17 12 12 3 -4 13 -9 21 -11 10 -1 7 5 -7 17 -19 16 -20 20 -7 25
10 4 13 2 8 -7 -4 -6 -3 -8 1 -4 12 10 15 38 4 31 -5 -3 -9 -1 -9 5 0 5 5 13
10 16 8 5 7 11 -1 21 -14 17 2 19 21 2 12 -11 12 -10 0 5 -11 15 -12 22 -1 39
11 18 11 20 -4 15 -10 -4 -14 -3 -9 4 3 6 14 9 25 6 15 -4 16 -2 6 14 -10 16
-9 21 3 29 8 5 10 10 5 10 -6 0 -11 9 -11 19 0 15 3 17 13 9 10 -8 12 -7 7 5
-3 8 0 26 7 39 11 21 11 22 -5 9 -9 -8 -19 -11 -23 -7 -3 3 -1 6 6 6 7 0 11 6
8 14 -3 8 1 17 9 20 10 4 13 2 8 -7 -5 -8 -2 -7 9 2 18 15 23 26 7 16 -6 -3
-10 -2 -10 4 0 5 4 12 10 16 5 3 6 13 3 22 -5 12 -3 14 8 8 8 -5 6 0 -4 12
-13 15 -15 23 -7 28 7 4 9 18 6 30 -3 13 -2 27 4 30 6 4 7 -1 3 -12 -3 -10 -3
-15 1 -12 4 4 9 19 12 34 5 26 4 27 -13 14 -16 -12 -17 -12 -6 2 7 9 9 20 5
24 -4 5 0 6 10 2 14 -5 15 -1 8 24 -6 18 -5 31 2 35 6 4 8 2 4 -4 -3 -6 -2
-13 3 -16 11 -7 9 13 -3 33 -7 11 -5 13 6 9 8 -4 15 0 15 7 0 8 -3 14 -6 13
-17 -2 -19 4 -6 28 7 15 11 34 8 43 -4 14 -3 14 6 1 9 -13 12 -13 23 -1 10 10
10 12 1 7 -8 -5 -13 -1 -13 9 0 10 5 13 13 9 9 -6 9 -4 -1 8 -10 13 -10 17 0
21 10 4 10 8 -2 16 -13 9 -12 11 5 12 19 0 19 1 1 8 -18 7 -18 8 5 24 21 16
15 23 -14 18 -5 -1 -6 3 -3 8 4 5 15 8 26 6 12 -2 18 0 14 6 -8 14 -12 58 -5
57 19 -2 22 4 10 18 -11 13 -10 18 7 32 24 21 54 59 37 49 -6 -4 -14 -3 -18 3
-4 6 -12 8 -18 4 -7 -3 -2 3 9 13 15 13 19 24 14 34 -5 8 -5 21 0 29 6 8 10
11 10 6 0 -6 6 -1 14 9 12 17 12 24 0 47 -8 16 -11 28 -7 27 20 -3 27 2 14 10
-12 8 -12 12 -2 25 8 9 11 28 8 43 -5 27 -5 27 10 8 12 -16 14 -16 10 -3 -3
10 -2 20 4 24 6 4 5 12 -3 22 -11 14 -10 15 7 8 11 -4 16 -4 12 0 -4 4 -2 13
4 21 8 8 8 13 1 13 -6 0 -12 -6 -15 -12 -3 -10 -8 -10 -18 1 -9 9 -9 11 -1 7
11 -7 15 5 15 56 0 10 5 14 13 11 8 -3 15 0 15 6 1 6 2 17 3 24 1 6 0 17 -3
22 -13 24 -9 36 10 30 11 -4 19 -2 19 4 0 6 -3 10 -7 10 -22 -4 -25 2 -8 14
14 11 15 16 5 22 -9 5 -11 4 -6 -3 5 -8 2 -10 -8 -6 -14 5 -14 8 1 22 9 10 20
17 24 17 4 0 11 4 16 9 5 5 3 6 -4 2 -7 -4 -13 -3 -13 1 0 5 6 15 13 22 10 11
10 13 0 7 -7 -4 -13 -2 -13 3 0 6 5 11 11 11 8 0 7 6 -2 17 -10 11 -10 14 -2
9 10 -5 13 3 14 31 1 21 1 41 0 45 0 4 7 4 16 1 12 -5 14 -3 7 8 -12 20 -14
38 -4 44 5 3 7 -4 5 -15 -2 -11 0 -18 5 -15 6 4 7 40 0 40 -1 0 -3 8 -5 18 -2
9 3 17 10 17 8 0 17 5 21 12 4 6 3 8 -3 5 -6 -4 -13 4 -15 18 -3 15 -1 22 5
18 6 -4 8 0 4 11 -5 11 -3 15 5 10 8 -5 9 -2 5 9 -4 12 -1 17 11 17 15 1 15 2
-1 11 -18 10 -18 11 0 32 10 11 13 17 6 14 -6 -4 -15 -2 -19 4 -4 7 -3 9 3 6
6 -4 14 1 17 10 4 9 1 20 -6 25 -7 4 -8 8 -3 8 6 0 16 10 24 21 11 19 11 21
-3 16 -10 -4 -13 -1 -10 7 3 7 16 12 29 10 23 -2 24 -1 8 22 -19 30 -27 31
-12 2 7 -14 7 -19 1 -13 -17 16 -18 39 -3 40 8 0 16 6 19 14 3 9 0 11 -9 6 -8
-5 -3 4 11 20 14 16 20 25 14 22 -7 -4 -18 1 -25 10 -10 12 -10 14 -1 9 8 -5
12 0 12 13 0 15 5 19 17 15 15 -5 15 -3 -2 11 -20 17 -20 17 2 12 22 -5 22 -4
5 21 -9 15 -12 23 -5 19 6 -4 14 -3 18 3 3 5 0 10 -7 11 -7 0 -4 4 7 9 16 7
16 9 4 9 -20 1 -20 31 -1 46 7 6 15 26 17 44 3 19 10 38 17 43 10 6 10 8 1 8
-7 0 -13 5 -13 11 0 5 5 7 10 4 6 -3 10 -1 10 5 0 6 5 8 10 5 16 -10 11 1 -7
16 -15 12 -16 12 -8 -1 4 -8 4 -12 0 -7 -17 15 -14 36 3 29 14 -5 15 -3 5 9
-7 9 -8 20 -3 29 5 8 6 19 3 25 -3 5 0 5 7 -2 11 -10 11 -15 0 -28 -15 -19 -4
-20 15 -1 11 10 11 16 2 25 -8 8 -8 14 -2 19 15 10 17 30 5 52 -6 11 -6 21 -1
24 5 3 8 19 7 35 -1 17 1 28 6 25 4 -3 6 8 5 23 -1 21 2 28 14 27 10 -1 16 5
14 15 -1 9 1 26 6 37 5 13 2 31 -6 48 -8 15 -10 24 -5 21 5 -3 11 -1 15 5 4 6
11 7 17 4 5 -4 5 4 -2 16 -11 20 -10 22 5 17 11 -5 15 -3 12 5 -2 7 -11 12
-18 10 -9 -2 -7 4 5 17 23 25 44 28 25 4 -13 -16 -12 -17 3 -4 10 7 15 18 12
23 -3 5 3 12 15 15 12 3 21 10 21 17 0 6 8 2 16 -9 16 -19 16 -19 9 5 -7 23
-7 24 10 10 11 -9 16 -10 11 -3 -4 7 -2 21 4 30 10 16 11 16 6 1 -3 -12 -1
-15 9 -11 8 3 13 9 10 13 -8 13 16 23 27 12 15 -15 38 -3 30 16 -5 14 -3 15
10 4 12 -10 18 -9 28 3 7 9 8 15 2 15 -6 0 -13 -5 -15 -10 -3 -6 -4 -5 -3 2 2
7 15 12 29 11 20 -1 24 2 20 14 -4 10 -2 14 5 10 13 -9 63 13 57 23 -3 5 2 10
10 13 9 4 12 1 9 -7 -3 -8 0 -17 6 -21 6 -3 10 -3 9 2 -5 27 3 44 19 41 9 -2
20 -7 24 -13 5 -6 8 -5 8 4 0 11 3 11 18 0 15 -13 16 -12 3 3 -7 10 -17 16
-21 13 -5 -3 -11 -1 -14 4 -3 4 12 8 34 7 21 -1 38 2 37 7 -1 5 7 11 18 13 10
1 28 13 38 26 10 13 16 18 14 13 -3 -6 3 -11 13 -11 14 0 16 4 9 13 -8 9 -4
11 18 7 21 -3 24 -2 13 5 -13 9 -13 12 -1 23 10 10 12 10 7 1 -4 -7 -2 -13 3
-13 6 0 11 6 11 13 0 8 4 7 10 -3 8 -12 10 -12 10 -1 0 11 3 11 18 0 16 -13
16 -13 2 5 -12 15 -12 20 -2 23 6 3 9 10 6 15 -4 7 -2 8 4 4 6 -4 9 -13 6 -20
-3 -8 0 -17 6 -21 6 -3 10 -3 9 2 -5 30 3 39 31 37 27 -2 30 1 25 19 -4 12 -3
18 2 12 14 -17 33 -16 33 2 0 15 2 16 10 3 6 -10 10 -11 10 -2 0 6 8 12 18 12
14 0 15 -2 2 -10 -8 -5 -10 -10 -4 -10 18 0 24 13 12 27 -9 11 -8 13 3 11 8
-2 13 3 11 10 -1 8 2 11 8 7 6 -3 8 -11 5 -16 -4 -5 -1 -9 6 -9 6 0 9 8 6 19
-3 14 -1 18 9 14 8 -3 15 -13 15 -22 1 -14 2 -13 6 2 2 9 9 15 14 12 5 -4 6 2
2 12 -6 15 -4 16 9 6 15 -13 28 -8 28 11 0 6 -5 4 -11 -4 -8 -12 -10 -12 -7
-1 2 8 12 15 21 17 9 1 15 -1 12 -6 -7 -11 22 -7 32 5 4 4 3 5 -3 2 -15 -9
-27 20 -12 29 7 4 8 3 4 -4 -4 -7 -1 -12 7 -12 8 0 18 7 21 16 5 14 9 14 23 3
15 -12 16 -12 11 3 -5 12 -1 16 18 13 19 -2 22 1 14 11 -9 10 -6 11 11 7 17
-5 20 -3 14 7 -5 8 -4 11 3 6 6 -3 14 -2 17 4 4 6 15 8 26 5 18 -6 28 9 12 18
-5 2 -2 2 5 1 6 -2 12 4 12 14 0 15 2 15 10 2 5 -8 10 -11 10 -6 0 5 8 2 17
-5 14 -12 16 -12 8 0 -6 11 -4 13 10 7 14 -5 16 -4 6 8 -9 11 -8 15 4 20 9 3
13 2 10 -4 -3 -6 -1 -10 4 -10 10 0 15 14 12 33 -1 5 3 5 9 2 6 -4 9 -14 5
-22 -4 -13 -3 -14 10 -3 8 7 12 16 10 21 -3 4 3 12 12 18 13 7 23 5 37 -7 18
-16 18 -16 8 4 -9 16 -8 21 3 21 8 0 11 -5 8 -10 -4 -6 -1 -7 6 -3 7 5 10 13
8 20 -5 13 51 15 72 2 9 -6 8 -1 -3 16 -16 24 -16 25 14 20 19 -3 30 0 30 7 0
7 -4 10 -8 7 -5 -3 -9 1 -9 9 0 12 4 12 20 -2 11 -10 17 -12 13 -5 -4 6 -2 12
4 12 6 0 8 4 5 10 -3 6 1 7 10 4 12 -5 13 -10 6 -17 -6 -6 -11 -16 -11 -21 0
-6 8 1 18 15 9 14 23 24 31 21 9 -3 11 0 6 8 -6 10 -4 12 9 7 14 -5 17 -3 13
8 -4 8 -1 17 5 21 6 4 9 3 6 -2 -3 -5 1 -16 10 -24 14 -13 15 -12 9 3 -4 11
-1 17 9 17 8 0 12 5 9 10 -4 6 -12 7 -18 4 -7 -4 -9 -3 -4 1 11 13 45 13 43 1
-2 -6 -1 -8 1 -3 3 4 9 5 14 2 5 -4 6 1 3 10 -5 11 -2 14 10 9 9 -3 13 -11 9
-18 -3 -6 0 -5 8 3 11 10 11 15 2 18 -20 7 -15 19 7 20 13 1 18 -2 14 -9 -4
-7 -2 -8 4 -4 7 4 12 17 13 29 0 21 1 21 9 2 5 -11 9 -15 9 -8 1 12 18 12 39
-1 8 -5 12 -3 10 6 -2 7 3 12 10 11 6 -2 12 1 12 6 0 14 29 41 43 41 7 0 4 -7
-7 -15 -18 -13 -18 -14 2 -12 11 0 18 5 16 9 -3 4 -1 8 5 8 6 0 7 8 4 18 -6
15 -5 15 10 3 9 -7 14 -18 10 -24 -3 -6 -1 -7 6 -3 9 6 9 11 0 22 -6 8 -8 18
-4 22 4 4 10 1 13 -7 3 -10 9 -7 19 10 l14 24 -6 -23 -7 -23 26 22 c26 23 37
41 13 20 -10 -8 -14 -7 -14 2 0 7 9 14 19 14 10 1 18 -2 18 -6 0 -4 6 -8 14
-8 9 0 12 6 8 16 -5 14 -4 14 13 1 10 -8 16 -10 12 -4 -8 14 20 27 36 17 7 -4
6 1 -2 10 -11 15 -11 17 2 17 8 0 18 6 21 13 3 6 3 2 0 -11 -6 -23 -5 -23 15
-5 12 9 21 22 21 28 0 5 -5 3 -10 -5 -5 -8 -10 -10 -10 -4 0 18 13 24 27 13
10 -9 13 -8 13 1 0 10 4 10 16 -1 13 -10 17 -10 25 2 5 8 9 10 9 5 0 -5 7 -3
15 4 8 7 15 18 15 24 0 6 -7 2 -15 -8 -8 -11 -15 -16 -15 -12 0 5 -7 3 -15 -4
-10 -9 -15 -9 -15 -1 0 6 5 11 11 11 5 0 7 5 3 12 -4 7 -3 8 5 4 6 -4 18 -2
26 4 8 7 15 9 15 4 0 -5 6 -2 13 6 7 8 19 16 27 18 9 1 5 -6 -9 -16 l-23 -19
23 2 c13 1 25 7 25 13 1 7 2 19 3 28 0 8 6 12 11 9 6 -4 8 -10 6 -14 -3 -4 1
-8 9 -8 11 0 12 5 3 21 -10 19 -10 20 6 6 22 -17 44 -21 51 -10 3 5 -5 7 -17
5 -21 -4 -21 -3 -6 9 10 7 14 17 10 21 -4 5 -2 5 5 2 6 -4 13 -4 16 0 2 5 2 3
1 -4 -2 -7 1 -15 7 -18 5 -4 8 -1 7 7 -2 7 3 12 11 10 12 -3 12 -1 0 14 -13
16 -12 16 10 4 21 -11 23 -10 18 4 -3 8 -2 18 3 21 6 4 10 -1 10 -10 0 -9 5
-13 10 -10 6 4 8 10 5 15 -3 5 -1 11 5 15 5 3 10 0 10 -7 0 -10 3 -9 9 1 8 12
12 13 26 1 14 -11 16 -11 13 1 -2 8 2 13 9 12 6 -1 17 5 25 14 11 14 11 16 -2
9 -8 -4 -6 0 4 8 13 10 23 12 31 6 7 -6 18 -4 32 5 11 8 24 11 28 7 5 -4 5 -1
1 5 -5 10 -13 9 -32 -3 -22 -15 -24 -15 -18 0 3 9 10 14 14 11 5 -3 11 -1 15
4 3 6 13 7 22 4 10 -4 14 -2 10 4 -5 7 1 9 15 5 16 -4 19 -2 13 9 -5 9 -1 7
11 -3 19 -16 20 -16 21 3 2 26 14 39 20 22 5 -14 31 7 52 42 9 14 11 15 7 3
-3 -10 0 -20 6 -24 6 -4 8 -3 4 4 -3 6 -2 13 4 17 5 3 10 1 10 -4 0 -6 5 -11
11 -11 5 0 7 5 4 10 -6 10 6 14 35 11 12 -2 13 0 1 7 -12 9 -8 32 5 32 3 0 2
-4 -1 -10z m-815 -114 c0 -2 -7 -7 -16 -10 -8 -3 -12 -2 -9 4 6 10 25 14 25 6z
m1784 -21 c-4 -8 -11 -15 -16 -15 -6 0 -5 6 2 15 7 8 14 15 16 15 2 0 1 -7 -2
-15z m-1311 -28 c3 -7 -3 -13 -14 -14 -15 -1 -16 1 -6 12 15 18 14 18 20 2z
m882 -46 c3 -5 0 -13 -6 -17 -7 -4 -9 -3 -5 4 3 5 0 13 -6 15 -9 4 -10 6 -1 6
6 1 14 -3 18 -8z m705 -56 c0 -2 -9 -3 -19 -2 -11 0 -18 5 -15 9 4 6 34 0 34
-7z m192 -90 c2 3 5 -2 5 -12 0 -13 -3 -12 -17 5 -10 12 -21 18 -25 14 -5 -4
-5 -1 0 7 7 12 10 11 20 -2 7 -9 14 -15 17 -12z m-2802 -10 c-7 -8 -17 -15
-22 -15 -11 0 14 29 26 30 5 0 3 -7 -4 -15z m3123 -140 c4 -8 3 -16 -1 -19 -4
-3 -9 4 -9 15 -2 23 3 25 10 4z m-2835 -19 c-2 -1 -10 -7 -19 -14 -13 -10 -18
-10 -22 0 -3 8 5 14 20 14 13 1 23 1 21 0z m2883 -19 c-10 -9 -11 -8 -5 6 3
10 9 15 12 12 3 -3 0 -11 -7 -18z m-3682 -70 c-2 -1 -11 -8 -21 -15 -12 -10
-18 -10 -24 -1 -4 7 -3 9 4 5 6 -3 13 -2 17 4 3 5 11 10 17 10 6 0 9 -1 7 -3z
m3341 -31 c0 -2 -8 -10 -17 -17 -16 -13 -17 -12 -4 4 13 16 21 21 21 13z
m-3425 -16 c3 -5 1 -10 -4 -10 -6 0 -11 5 -11 10 0 6 2 10 4 10 3 0 8 -4 11
-10z m3499 -42 c-3 -4 -14 -3 -25 2 -22 13 -26 22 -4 14 9 -4 15 0 15 7 0 11
2 11 9 -1 6 -8 7 -18 5 -22z m676 -23 c0 -2 -6 -5 -13 -8 -8 -3 -14 1 -14 8 0
7 6 11 14 8 7 -3 13 -6 13 -8z m-4586 -130 c-4 -8 -11 -15 -16 -15 -6 0 -5 6
2 15 7 8 14 15 16 15 2 0 1 -7 -2 -15z m4848 8 c-6 -2 -9 -10 -6 -15 4 -7 2
-8 -5 -4 -13 9 -5 26 12 25 9 0 8 -2 -1 -6z m-4957 -53 c3 -5 -1 -10 -10 -10
-9 0 -13 5 -10 10 3 6 8 10 10 10 2 0 7 -4 10 -10z m-219 -122 c3 -4 -1 -5
-10 -4 -8 1 -18 5 -22 8 -3 4 1 5 10 4 8 -1 18 -5 22 -8z m5567 -33 c-3 -9 -8
-14 -10 -11 -3 3 -2 9 2 15 9 16 15 13 8 -4z m24 -7 c-3 -8 -6 -5 -6 6 -1 11
2 17 5 13 3 -3 4 -12 1 -19z m-5087 2 c0 -5 -5 -10 -11 -10 -5 0 -7 5 -4 10 3
6 8 10 11 10 2 0 4 -4 4 -10z m5145 -28 c-3 -3 -11 0 -18 7 -9 10 -8 11 6 5
10 -3 15 -9 12 -12z m-5865 -26 c0 -3 -4 -8 -10 -11 -5 -3 -10 -1 -10 4 0 6 5
11 10 11 6 0 10 -2 10 -4z m5360 -21 c11 -13 10 -14 -4 -9 -9 3 -16 10 -16 15
0 13 6 11 20 -6z m-5420 -15 c0 -5 -2 -10 -4 -10 -3 0 -8 5 -11 10 -3 6 -1 10
4 10 6 0 11 -4 11 -10z m543 -24 c4 -10 1 -13 -8 -9 -8 3 -12 9 -9 14 7 12 11
11 17 -5z m-23 -21 c0 -7 -30 -13 -34 -7 -3 4 4 9 15 9 10 1 19 0 19 -2z
m5669 -28 c0 -9 -2 -8 -6 1 -2 6 -10 9 -15 6 -7 -4 -8 -2 -4 5 9 13 26 5 25
-12z m34 -23 c-4 -12 -8 -13 -14 -3 -9 15 -2 32 11 24 5 -3 6 -13 3 -21z
m-335 -118 c14 5 14 4 2 -4 -18 -13 -30 -6 -29 16 1 16 2 16 6 0 3 -11 11 -15
21 -12z m-5873 -206 c3 -6 -1 -7 -9 -4 -18 7 -21 14 -7 14 6 0 13 -4 16 -10z
m6015 -30 c6 -11 8 -20 6 -20 -3 0 -10 9 -16 20 -6 11 -8 20 -6 20 3 0 10 -9
16 -20z m-6026 -14 c-3 -9 -10 -16 -15 -16 -5 0 -4 9 3 20 14 22 21 20 12 -4z
m-36 -191 c-3 -3 -9 2 -12 12 -6 14 -5 15 5 6 7 -7 10 -15 7 -18z m-13 -15 c3
-5 1 -10 -4 -10 -6 0 -11 5 -11 10 0 6 2 10 4 10 3 0 8 -4 11 -10z m6129 -22
c-3 -4 0 -8 6 -8 6 0 8 -5 5 -11 -9 -14 -15 -7 -21 27 -3 21 -2 25 5 14 5 -8
7 -18 5 -22z m303 -48 c-12 -18 -15 -19 -21 -5 -3 9 -2 13 4 10 6 -3 10 -1 10
4 0 6 -6 11 -12 11 -9 0 -8 3 2 10 23 14 34 -5 17 -30z m-282 -8 c-3 -3 -11 0
-18 7 -9 10 -8 11 6 5 10 -3 15 -9 12 -12z m-6498 -267 c0 -8 -4 -12 -9 -9 -5
3 -6 10 -3 15 9 13 12 11 12 -6z m6868 -105 c3 -6 -1 -7 -9 -4 -18 7 -21 14
-7 14 6 0 13 -4 16 -10z m-6910 -57 c-2 -10 -4 -19 -4 -21 -1 -2 -6 0 -11 3
-8 5 -7 11 1 21 15 18 18 18 14 -3z m-41 -174 c-3 -5 -10 -7 -15 -3 -5 3 -7
10 -3 15 3 5 10 7 15 3 5 -3 7 -10 3 -15z m6746 -119 c0 -5 -5 -10 -11 -10 -5
0 -7 5 -4 10 3 6 8 10 11 10 2 0 4 -4 4 -10z m8 -45 c-3 -3 -9 2 -12 12 -6 14
-5 15 5 6 7 -7 10 -15 7 -18z m302 -33 c0 -4 -5 -14 -11 -22 -9 -12 -10 -12
-5 4 4 11 0 24 -11 33 -16 13 -16 13 5 3 12 -6 22 -14 22 -18z m15 -102 c-3
-5 -12 -10 -18 -10 -7 0 -6 4 3 10 19 12 23 12 15 0z m-7135 -14 c0 -3 -4 -8
-10 -11 -5 -3 -10 -1 -10 4 0 6 5 11 10 11 6 0 10 -2 10 -4z m227 -201 c0 -8
-4 -12 -9 -9 -5 3 -6 10 -3 15 9 13 12 11 12 -6z m-315 -162 c-6 -2 -9 -10 -6
-15 4 -7 2 -8 -5 -4 -13 9 -5 26 12 25 9 0 8 -2 -1 -6z m243 -144 c-4 -5 -1
-9 5 -9 6 0 8 -5 5 -11 -9 -13 -15 -7 -20 20 -2 12 0 19 6 16 5 -4 7 -11 4
-16z m-280 -69 c3 -5 1 -10 -4 -10 -6 0 -11 5 -11 10 0 6 2 10 4 10 3 0 8 -4
11 -10z m259 -85 c-4 -8 -13 -15 -20 -15 -12 0 -12 3 -2 15 17 19 29 19 22 0z
m7176 -109 c0 -2 -8 -10 -17 -17 -16 -13 -17 -12 -4 4 13 16 21 21 21 13z
m-7590 -472 c0 -2 -9 -8 -20 -14 -15 -8 -18 -8 -14 3 4 11 34 21 34 11z m7720
-124 c7 -13 7 -26 2 -36 -8 -15 -10 -15 -15 0 -4 10 -3 15 3 11 6 -3 10 -1 10
4 0 6 -4 11 -8 11 -5 0 -9 7 -9 15 0 20 4 19 17 -5z m-245 -90 c-3 -5 -12 -10
-18 -10 -7 0 -6 4 3 10 19 12 23 12 15 0z m298 -185 c-3 -9 -8 -14 -10 -11 -3
3 -2 9 2 15 9 16 15 13 8 -4z m-7917 -201 c1 -9 0 -13 -4 -10 -3 4 -7 14 -8
22 -1 9 0 13 4 10 3 -4 7 -14 8 -22z m7964 20 c0 -8 -19 -13 -24 -6 -3 5 1 9
9 9 8 0 15 -2 15 -3z m-7606 -99 c3 -8 1 -15 -4 -15 -6 0 -10 7 -10 15 0 8 2
15 4 15 2 0 6 -7 10 -15z m-237 -161 c-3 -3 -12 -4 -19 -1 -8 3 -5 6 6 6 11 1
17 -2 13 -5z m420 -80 c-3 -3 -12 -4 -19 -1 -8 3 -5 6 6 6 11 1 17 -2 13 -5z
m-316 -52 c-7 -2 -18 1 -23 6 -8 8 -4 9 13 5 13 -4 18 -8 10 -11z m7489 -46
c0 -3 -4 -8 -10 -11 -5 -3 -10 -1 -10 4 0 6 5 11 10 11 6 0 10 -2 10 -4z
m-7324 -156 c0 -12 -4 -16 -9 -11 -5 5 -6 14 -3 20 10 15 12 14 12 -9z m7174
-24 c0 -2 -7 -9 -15 -16 -13 -11 -14 -10 -9 4 5 14 24 23 24 12z m-7123 -42
c-3 -3 -12 -4 -19 -1 -8 3 -5 6 6 6 11 1 17 -2 13 -5z m6700 -59 c0 -8 -4 -12
-9 -9 -5 3 -6 10 -3 15 9 13 12 11 12 -6z m-103 -113 c3 -5 -1 -9 -9 -9 -8 0
-12 4 -9 9 3 4 7 8 9 8 2 0 6 -4 9 -8z m-6306 -194 c-2 -7 3 -12 10 -10 8 1
11 -2 8 -7 -4 -5 4 -17 16 -25 12 -9 19 -18 16 -22 -8 -8 -68 58 -62 68 8 12
14 9 12 -4z m462 -142 c0 -6 -5 -3 -11 7 -6 9 -14 15 -18 13 -4 -3 -8 1 -8 9
0 13 4 12 19 -2 10 -9 18 -21 18 -27z m30 -41 c0 -8 -2 -15 -4 -15 -2 0 -6 7
-10 15 -3 8 -1 15 4 15 6 0 10 -7 10 -15z m-335 -7 c5 4 5 1 1 -6 -6 -10 -11
-10 -22 -1 -8 6 -14 14 -14 16 0 3 6 0 13 -6 8 -6 18 -7 22 -3z m95 -102 c0
-2 -7 -9 -15 -16 -13 -11 -14 -10 -9 4 5 14 24 23 24 12z m40 -78 c0 -4 -4 -8
-9 -8 -6 0 -12 4 -15 8 -3 5 1 9 9 9 8 0 15 -4 15 -9z m5445 -168 c-3 -5 -12
-10 -18 -10 -7 0 -6 4 3 10 19 12 23 12 15 0z m-5285 -26 c0 -8 -19 -13 -24
-6 -3 5 1 9 9 9 8 0 15 -2 15 -3z m5230 -24 c0 -5 -5 -10 -11 -10 -5 0 -7 5
-4 10 3 6 8 10 11 10 2 0 4 -4 4 -10z m-36 -68 c3 -5 -1 -9 -9 -9 -8 0 -12 4
-9 9 3 4 7 8 9 8 2 0 6 -4 9 -8z m-5089 -52 c-3 -5 2 -10 11 -10 10 0 15 -3
11 -6 -10 -10 -39 5 -32 16 3 5 8 10 11 10 3 0 2 -4 -1 -10z m5360 -29 c3 -5
2 -12 -3 -15 -5 -3 -9 1 -9 9 0 17 3 19 12 6z m-358 -16 c0 -8 -5 -11 -10 -8
-6 4 -8 -1 -4 -11 4 -9 3 -15 -2 -12 -4 3 -14 -6 -21 -19 -7 -13 -20 -27 -29
-30 -10 -4 -8 2 7 18 12 13 22 27 22 32 0 7 29 45 35 45 1 0 2 -7 2 -15z
m-4947 -11 c0 -8 -19 -13 -24 -6 -3 5 1 9 9 9 8 0 15 -2 15 -3z m157 -190 c-3
-4 -2 -16 4 -28 10 -20 9 -20 -5 -2 -14 17 -13 36 1 36 4 0 3 -3 0 -6z m392
-58 c9 -11 9 -16 -1 -22 -7 -4 -10 -4 -6 1 4 4 3 14 -3 22 -6 7 -9 13 -6 13 2
0 10 -6 16 -14z m106 -136 c3 -5 1 -10 -4 -10 -6 0 -11 5 -11 10 0 6 2 10 4
10 3 0 8 -4 11 -10z m37 -50 c16 -19 21 -30 13 -30 -8 0 -17 9 -20 20 -4 11
-11 17 -17 14 -6 -4 -8 -2 -4 4 3 5 0 13 -6 15 -7 3 -8 6 -3 6 6 1 22 -12 37
-29z m4065 -245 c0 -8 -4 -15 -9 -15 -10 0 -11 14 -1 23 9 10 10 9 10 -8z
m-4197 -35 c0 -5 -2 -10 -4 -10 -3 0 -8 5 -11 10 -3 6 -1 10 4 10 6 0 11 -4
11 -10z m3816 -12 c4 -7 4 -10 -1 -6 -13 12 -34 -11 -28 -30 4 -14 3 -15 -6
-2 -7 11 -6 19 6 32 19 21 20 22 29 6z m-3462 -14 c3 -8 2 -12 -4 -9 -6 3 -10
10 -10 16 0 14 7 11 14 -7z m101 -63 c3 -5 1 -12 -5 -16 -5 -3 -10 1 -10 9 0
18 6 21 15 7z m763 -16 c-3 -3 -9 2 -12 12 -6 14 -5 15 5 6 7 -7 10 -15 7 -18z
m240 0 c-3 -3 -9 2 -12 12 -6 14 -5 15 5 6 7 -7 10 -15 7 -18z m240 0 c-3 -3
-9 2 -12 12 -6 14 -5 15 5 6 7 -7 10 -15 7 -18z m240 0 c-3 -3 -9 2 -12 12 -6
14 -5 15 5 6 7 -7 10 -15 7 -18z m240 0 c-3 -3 -9 2 -12 12 -6 14 -5 15 5 6 7
-7 10 -15 7 -18z m240 0 c-3 -3 -9 2 -12 12 -6 14 -5 15 5 6 7 -7 10 -15 7
-18z m240 0 c-3 -3 -9 2 -12 12 -6 14 -5 15 5 6 7 -7 10 -15 7 -18z m240 0
c-3 -3 -9 2 -12 12 -6 14 -5 15 5 6 7 -7 10 -15 7 -18z m240 0 c-3 -3 -9 2
-12 12 -6 14 -5 15 5 6 7 -7 10 -15 7 -18z m80 0 c-3 -3 -9 2 -12 12 -6 14 -5
15 5 6 7 -7 10 -15 7 -18z m240 0 c-3 -3 -9 2 -12 12 -6 14 -5 15 5 6 7 -7 10
-15 7 -18z"/>
<path d="M4211 7504 c0 -11 3 -14 6 -6 3 7 2 16 -1 19 -3 4 -6 -2 -5 -13z"/>
<path d="M4253 7475 c0 -7 6 -11 14 -8 7 3 13 6 13 8 0 2 -6 5 -13 8 -8 3 -14
-1 -14 -8z"/>
<path d="M4614 7309 c-4 -7 -3 -9 4 -5 5 3 13 0 15 -6 4 -9 6 -10 6 -1 1 17
-16 25 -25 12z"/>
<path d="M4890 7180 c0 -6 7 -10 15 -10 8 0 15 2 15 4 0 2 -7 6 -15 10 -8 3
-15 1 -15 -4z"/>
<path d="M5070 7079 c0 -5 5 -7 10 -4 6 3 10 8 10 11 0 2 -4 4 -10 4 -5 0 -10
-5 -10 -11z"/>
<path d="M5270 6989 c0 -5 5 -7 10 -4 6 3 10 8 10 11 0 2 -4 4 -10 4 -5 0 -10
-5 -10 -11z"/>
<path d="M2360 6820 c-13 -8 -12 -10 3 -10 9 0 17 5 17 10 0 12 -1 12 -20 0z"/>
<path d="M5735 6770 c-7 -11 -8 -11 22 -14 18 -2 20 0 12 11 -14 16 -26 17
-34 3z"/>
<path d="M2175 6720 c3 -5 8 -10 11 -10 2 0 4 5 4 10 0 6 -5 10 -11 10 -5 0
-7 -4 -4 -10z"/>
<path d="M6230 6546 c0 -4 7 -14 15 -22 8 -9 15 -11 15 -6 0 5 -7 15 -15 22
-8 7 -15 9 -15 6z"/>
<path d="M6750 6276 c0 -2 7 -7 16 -10 8 -3 12 -2 9 4 -6 10 -25 14 -25 6z"/>
<path d="M1195 6240 c3 -5 8 -10 11 -10 2 0 4 5 4 10 0 6 -5 10 -11 10 -5 0
-7 -4 -4 -10z"/>
<path d="M6984 6083 c4 -7 2 -13 -4 -13 -6 0 -8 -4 -5 -10 3 -5 10 -10 15 -10
10 0 7 27 -5 37 -4 4 -5 2 -1 -4z"/>
<path d="M983 5937 c0 -8 6 -14 14 -14 9 0 10 4 2 14 -6 7 -12 13 -14 13 -1 0
-2 -6 -2 -13z"/>
<path d="M987 5897 c-3 -8 1 -14 8 -14 7 0 11 6 8 14 -3 7 -6 13 -8 13 -2 0
-5 -6 -8 -13z"/>
<path d="M970 5866 c0 -2 7 -7 16 -10 8 -3 12 -2 9 4 -6 10 -25 14 -25 6z"/>
<path d="M965 5841 c-3 -5 -2 -12 3 -15 5 -3 9 1 9 9 0 17 -3 19 -12 6z"/>
<path d="M910 5579 c0 -5 5 -7 10 -4 6 3 10 8 10 11 0 2 -4 4 -10 4 -5 0 -10
-5 -10 -11z"/>
<path d="M915 5549 c-4 -6 -5 -12 -2 -15 2 -3 7 2 10 11 7 17 1 20 -8 4z"/>
<path d="M7153 5351 c0 -11 5 -18 9 -15 4 3 5 11 1 19 -7 21 -12 19 -10 -4z"/>
<path d="M810 5176 c0 -2 8 -10 18 -17 15 -13 16 -12 3 4 -13 16 -21 21 -21
13z"/>
<path d="M7190 5170 c0 -5 5 -10 11 -10 5 0 7 5 4 10 -3 6 -8 10 -11 10 -2 0
-4 -4 -4 -10z"/>
<path d="M7190 5140 c0 -5 5 -10 11 -10 5 0 7 5 4 10 -3 6 -8 10 -11 10 -2 0
-4 -4 -4 -10z"/>
<path d="M7209 5063 c-13 -16 -12 -17 4 -4 9 7 17 15 17 17 0 8 -8 3 -21 -13z"/>
<path d="M788 5003 c7 -3 16 -2 19 1 4 3 -2 6 -13 5 -11 0 -14 -3 -6 -6z"/>
<path d="M2044 4852 l-22 -3 1 -1225 0 -1224 86 0 c774 -2 1665 0 1669 5 7 7
6 250 -1 262 -4 6 -272 9 -714 8 -389 0 -712 1 -718 2 -6 2 -10 148 -9 416 1
226 2 414 3 418 0 3 300 5 666 5 l665 -1 1 35 c3 114 0 232 -5 237 -3 4 -301
6 -661 6 -462 0 -658 3 -663 11 -11 18 -8 765 3 769 5 2 317 3 692 3 l683 -1
1 25 c3 83 0 242 -5 247 -6 6 -1632 11 -1672 5z"/>
<path d="M4281 4850 c-5 -3 -8 -555 -8 -1227 l0 -1222 101 -3 c56 -2 126 -1
157 2 l56 5 -1 500 c-1 275 0 508 2 517 4 15 40 17 425 18 232 0 431 2 442 4
28 4 109 19 115 22 3 1 16 5 30 10 102 32 247 139 317 234 77 105 107 186 120
325 10 106 5 216 -12 293 -3 12 -7 32 -10 43 -20 92 -87 211 -161 286 -103
104 -257 169 -444 189 -75 8 -1118 12 -1129 4z m1143 -300 c184 -59 282 -189
290 -384 10 -245 -135 -413 -381 -442 -57 -7 -719 -13 -738 -7 -6 2 -9 148 -8
416 1 226 2 419 2 427 1 14 45 16 384 14 364 -1 385 -3 451 -24z"/>
<path d="M700 4700 c0 -6 7 -10 15 -10 8 0 15 2 15 4 0 2 -7 6 -15 10 -8 3
-15 1 -15 -4z"/>
<path d="M7317 4609 c7 -7 15 -10 18 -7 3 3 -2 9 -12 12 -14 6 -15 5 -6 -5z"/>
<path d="M7334 4582 c4 -7 1 -12 -6 -12 -10 0 -10 -2 0 -9 8 -4 13 -11 13 -15
-1 -3 1 -6 4 -6 3 0 8 0 11 0 4 0 1 6 -5 13 -6 8 -8 16 -5 19 3 3 0 9 -7 14
-8 4 -10 3 -5 -4z"/>
<path d="M7363 4448 c-13 -22 -13 -42 0 -29 10 10 19 41 12 41 -2 0 -7 -6 -12
-12z"/>
<path d="M7373 4355 c0 -8 4 -12 9 -9 4 3 8 9 8 15 0 5 -4 9 -8 9 -5 0 -9 -7
-9 -15z"/>
<path d="M626 4352 c-3 -5 1 -9 9 -9 8 0 12 4 9 9 -3 4 -7 8 -9 8 -2 0 -6 -4
-9 -8z"/>
<path d="M7390 4266 c0 -2 7 -7 16 -10 8 -3 12 -2 9 4 -6 10 -25 14 -25 6z"/>
<path d="M7482 3871 c-11 -6 -10 -10 4 -15 9 -3 19 -4 22 -1 3 3 0 5 -7 5 -7
0 -9 5 -6 10 7 12 4 12 -13 1z"/>
<path d="M486 3782 c-2 -4 4 -8 14 -8 10 0 16 4 14 8 -3 4 -9 8 -14 8 -5 0
-11 -4 -14 -8z"/>
<path d="M7554 3462 c4 -3 14 -7 22 -8 9 -1 13 0 10 4 -4 3 -14 7 -22 8 -9 1
-13 0 -10 -4z"/>
<path d="M7650 3125 c0 -8 4 -15 10 -15 5 0 7 7 4 15 -4 8 -8 15 -10 15 -2 0
-4 -7 -4 -15z"/>
<path d="M7593 2835 c0 -8 4 -12 9 -9 5 3 6 10 3 15 -9 13 -12 11 -12 -6z"/>
<path d="M457 2776 c-7 -18 18 -42 28 -26 4 6 1 9 -7 8 -8 -2 -12 4 -10 15 3
21 -4 23 -11 3z"/>
<path d="M7508 2733 c7 -3 16 -2 19 1 4 3 -2 6 -13 5 -11 0 -14 -3 -6 -6z"/>
<path d="M707 2449 c7 -7 15 -10 18 -7 3 3 -2 9 -12 12 -14 6 -15 5 -6 -5z"/>
<path d="M6890 1929 c0 -5 5 -7 10 -4 6 3 10 8 10 11 0 2 -4 4 -10 4 -5 0 -10
-5 -10 -11z"/>
<path d="M1147 1889 c7 -7 15 -10 18 -7 3 3 -2 9 -12 12 -14 6 -15 5 -6 -5z"/>
<path d="M6616 1593 c-6 -14 -5 -15 5 -6 7 7 10 15 7 18 -3 3 -9 -2 -12 -12z"/>
<path d="M6536 1501 c-4 -5 -2 -12 3 -15 5 -4 12 -2 15 3 4 5 2 12 -3 15 -5 4
-12 2 -15 -3z"/>
<path d="M1526 1422 c-2 -4 7 -17 20 -29 13 -12 24 -18 24 -13 0 5 -9 15 -20
23 -11 8 -17 17 -13 20 3 4 4 7 0 7 -3 0 -8 -3 -11 -8z"/>
<path d="M1700 1199 c12 -16 24 -28 27 -25 3 3 -2 12 -11 21 -9 9 -16 21 -16
26 0 5 -5 9 -11 9 -6 0 -1 -14 11 -31z"/>
<path d="M1772 1111 c-11 -7 -11 -9 0 -14 9 -3 15 1 15 9 0 8 -1 14 -1 14 -1
0 -7 -4 -14 -9z"/>
<path d="M1818 1048 c14 -14 44 -20 36 -7 -3 5 -10 7 -15 4 -5 -4 -9 -1 -9 4
0 6 -5 11 -12 11 -9 0 -9 -3 0 -12z"/>
<path d="M6160 1040 c-9 -6 -10 -10 -3 -10 6 0 15 5 18 10 8 12 4 12 -15 0z"/>
<path d="M6155 1009 c-4 -6 -14 -8 -24 -4 -13 5 -14 4 -3 -6 10 -11 15 -10 29
4 10 9 14 17 11 17 -4 0 -10 -5 -13 -11z"/>
<path d="M1876 998 c3 -5 10 -6 15 -3 13 9 11 12 -6 12 -8 0 -12 -4 -9 -9z"/>
<path d="M1965 860 c3 -5 8 -10 11 -10 2 0 4 5 4 10 0 6 -5 10 -11 10 -5 0 -7
-4 -4 -10z"/>
<path d="M5815 600 c-3 -5 -1 -10 4 -10 6 0 11 5 11 10 0 6 -2 10 -4 10 -3 0
-8 -4 -11 -10z"/>
<path d="M2191 573 c7 -10 14 -20 16 -22 1 -2 1 6 0 18 -1 11 -8 21 -15 21
-12 0 -12 -3 -1 -17z"/>
<path d="M3635 7769 c-4 -6 -5 -12 -2 -15 2 -3 7 2 10 11 7 17 1 20 -8 4z"/>
<path d="M4468 7703 c7 -3 16 -2 19 1 4 3 -2 6 -13 5 -11 0 -14 -3 -6 -6z"/>
<path d="M4508 7693 c6 -2 9 -10 6 -15 -4 -7 -2 -8 5 -4 13 9 5 26 -12 25 -9
0 -8 -2 1 -6z"/>
<path d="M4550 7656 c0 -2 7 -7 16 -10 8 -3 12 -2 9 4 -6 10 -25 14 -25 6z"/>
<path d="M4637 7639 c7 -7 15 -10 18 -7 3 3 -2 9 -12 12 -14 6 -15 5 -6 -5z"/>
<path d="M4955 7471 c-3 -5 -1 -12 5 -16 5 -3 10 1 10 9 0 18 -6 21 -15 7z"/>
<path d="M2987 7443 c-4 -3 -7 -11 -7 -17 0 -6 5 -5 12 2 6 6 9 14 7 17 -3 3
-9 2 -12 -2z"/>
<path d="M5113 7405 c0 -8 4 -12 8 -9 4 2 10 -2 12 -8 4 -8 6 -9 6 -2 1 6 -5
17 -12 23 -10 8 -14 7 -14 -4z"/>
<path d="M2796 7344 c-23 -23 -20 -30 4 -9 11 10 20 20 20 22 0 7 -9 2 -24
-13z"/>
<path d="M5531 7194 c0 -11 3 -14 6 -6 3 7 2 16 -1 19 -3 4 -6 -2 -5 -13z"/>
<path d="M2193 7055 c0 -8 4 -12 9 -9 4 3 8 9 8 15 0 5 -4 9 -8 9 -5 0 -9 -7
-9 -15z"/>
<path d="M5946 7001 c-10 -15 18 -31 34 -20 12 8 11 9 -5 7 -12 -2 -19 2 -17
10 2 14 -4 16 -12 3z"/>
<path d="M6045 6960 c-3 -5 -1 -10 4 -10 6 0 11 5 11 10 0 6 -2 10 -4 10 -3 0
-8 -4 -11 -10z"/>
<path d="M1880 6920 c-9 -6 -10 -10 -3 -10 6 0 15 5 18 10 8 12 4 12 -15 0z"/>
<path d="M1830 6879 c0 -5 5 -7 10 -4 6 3 10 8 10 11 0 2 -4 4 -10 4 -5 0 -10
-5 -10 -11z"/>
<path d="M6360 6791 c0 -11 4 -22 9 -25 4 -3 6 6 3 19 -5 30 -12 33 -12 6z"/>
<path d="M6510 6719 c0 -5 5 -7 10 -4 6 3 10 8 10 11 0 2 -4 4 -10 4 -5 0 -10
-5 -10 -11z"/>
<path d="M1326 6635 c-3 -9 -11 -13 -17 -9 -8 5 -9 3 -4 -5 6 -10 11 -9 23 3
9 8 13 18 10 21 -3 3 -8 -1 -12 -10z"/>
<path d="M6680 6636 c0 -2 7 -9 15 -16 9 -7 15 -8 15 -2 0 5 -7 12 -15 16 -8
3 -15 4 -15 2z"/>
<path d="M803 6390 c2 -8 -5 -20 -17 -27 -12 -7 -16 -12 -10 -13 5 0 18 6 27
13 12 9 14 16 6 27 -9 13 -10 13 -6 0z"/>
<path d="M7255 6220 c3 -5 8 -10 11 -10 2 0 4 5 4 10 0 6 -5 10 -11 10 -5 0
-7 -4 -4 -10z"/>
<path d="M742 6215 c4 -4 3 -14 -4 -22 -6 -7 -9 -15 -7 -18 3 -2 10 4 17 15 9
15 9 21 -1 26 -6 4 -9 4 -5 -1z"/>
<path d="M7296 6082 c-3 -5 1 -9 9 -9 8 0 12 4 9 9 -3 4 -7 8 -9 8 -2 0 -6 -4
-9 -8z"/>
<path d="M7335 5921 c-3 -6 5 -15 17 -21 21 -10 21 -10 6 3 -10 8 -15 17 -11
20 3 4 4 7 0 7 -3 0 -8 -4 -12 -9z"/>
<path d="M7365 5780 c-3 -5 -1 -10 4 -10 6 0 11 5 11 10 0 6 -2 10 -4 10 -3 0
-8 -4 -11 -10z"/>
<path d="M7415 5520 c3 -5 8 -10 11 -10 2 0 4 5 4 10 0 6 -5 10 -11 10 -5 0
-7 -4 -4 -10z"/>
<path d="M324 4392 c3 -5 0 -13 -6 -15 -10 -4 -9 -6 1 -6 11 -1 11 -4 0 -18
-12 -14 -12 -16 1 -11 17 5 22 45 7 55 -6 3 -7 1 -3 -5z"/>
<path d="M7720 4203 c0 -6 8 -17 18 -24 16 -13 16 -13 2 6 -8 11 -16 22 -17
24 -2 2 -3 0 -3 -6z"/>
<path d="M7743 4093 c0 -9 4 -10 14 -2 7 6 13 12 13 14 0 1 -6 2 -13 2 -8 0
-14 -6 -14 -14z"/>
<path d="M7769 3982 c9 -7 10 -11 2 -15 -7 -4 -8 -5 0 -3 15 2 13 20 -3 24
-10 3 -10 2 1 -6z"/>
<path d="M7776 3918 c3 -5 10 -6 15 -3 13 9 11 12 -6 12 -8 0 -12 -4 -9 -9z"/>
<path d="M7866 3561 c-3 -5 2 -15 12 -22 15 -12 16 -12 5 2 -7 9 -10 19 -6 22
3 4 4 7 0 7 -3 0 -8 -4 -11 -9z"/>
<path d="M7891 3474 c0 -11 3 -14 6 -6 3 7 2 16 -1 19 -3 4 -6 -2 -5 -13z"/>
<path d="M40 3196 c7 -7 13 -7 20 0 6 6 3 10 -10 10 -13 0 -16 -4 -10 -10z"/>
<path d="M7845 2680 c-3 -5 -2 -10 4 -10 5 0 13 5 16 10 3 6 2 10 -4 10 -5 0
-13 -4 -16 -10z"/>
<path d="M162 2646 c7 -8 15 -12 17 -11 5 6 -10 25 -20 25 -5 0 -4 -6 3 -14z"/>
<path d="M7766 2572 c-3 -5 1 -9 9 -9 8 0 12 4 9 9 -3 4 -7 8 -9 8 -2 0 -6 -4
-9 -8z"/>
<path d="M7755 2540 c3 -5 8 -10 11 -10 2 0 4 5 4 10 0 6 -5 10 -11 10 -5 0
-7 -4 -4 -10z"/>
<path d="M276 2505 c4 -8 11 -15 16 -15 6 0 5 6 -2 15 -7 8 -14 15 -16 15 -2
0 -1 -7 2 -15z"/>
<path d="M467 2269 c7 -7 15 -10 18 -7 3 3 -2 9 -12 12 -14 6 -15 5 -6 -5z"/>
<path d="M563 2145 c0 -8 4 -12 9 -9 5 3 6 10 3 15 -9 13 -12 11 -12 -6z"/>
<path d="M7364 2078 c-7 -11 18 -10 36 2 11 7 10 9 -8 7 -13 -1 -26 -5 -28 -9z"/>
<path d="M703 1965 c0 -8 4 -12 9 -9 5 3 6 10 3 15 -9 13 -12 11 -12 -6z"/>
<path d="M810 1838 c0 -9 7 -22 17 -29 15 -13 15 -12 3 11 -17 34 -20 36 -20
18z"/>
<path d="M7165 1820 c-3 -5 -1 -10 4 -10 6 0 11 5 11 10 0 6 -2 10 -4 10 -3 0
-8 -4 -11 -10z"/>
<path d="M7145 1769 c-4 -6 -5 -12 -2 -15 2 -3 7 2 10 11 7 17 1 20 -8 4z"/>
<path d="M995 1600 c-3 -5 -1 -10 4 -10 6 0 11 5 11 10 0 6 -2 10 -4 10 -3 0
-8 -4 -11 -10z"/>
<path d="M6945 1531 c-3 -5 0 -13 6 -17 7 -4 9 -3 5 4 -3 5 0 13 6 15 9 4 10
6 1 6 -6 1 -14 -3 -18 -8z"/>
<path d="M6614 1129 c-4 -7 -3 -9 4 -5 5 3 13 0 15 -6 4 -9 6 -10 6 -1 1 17
-16 25 -25 12z"/>
<path d="M1477 996 c-4 -10 -1 -13 8 -9 8 3 12 9 9 14 -7 12 -11 11 -17 -5z"/>
<path d="M1710 682 c0 -6 9 -12 20 -15 11 -3 20 -3 20 -1 0 2 -9 8 -20 14 -11
6 -20 7 -20 2z"/>
<path d="M6266 674 c-9 -24 -2 -26 12 -4 7 11 8 20 3 20 -5 0 -12 -7 -15 -16z"/>
<path d="M1778 628 c10 -13 10 -17 0 -21 -9 -4 -9 -6 -1 -6 20 -2 24 16 5 30
-15 13 -16 12 -4 -3z"/>
<path d="M1868 493 c7 -3 16 -2 19 1 4 3 -2 6 -13 5 -11 0 -14 -3 -6 -6z"/>
<path d="M2148 153 c7 -3 16 -2 19 1 4 3 -2 6 -13 5 -11 0 -14 -3 -6 -6z"/>
</g>
</svg>
